<svg width="221" height="222" viewBox="0 0 221 222" fill="none" xmlns="http://www.w3.org/2000/svg">
<path d="M32.6706 123.641C25.5245 80.5757 54.6427 39.8715 97.7079 32.7255C140.773 25.5795 181.477 54.6977 188.623 97.7628C195.769 140.828 166.651 181.532 123.586 188.678C80.5208 195.824 39.8166 166.706 32.6706 123.641Z" stroke="#B18D60" stroke-opacity="0.6" stroke-width="4"/>
<path d="M21.1529 113.232L21.2488 114.725L6.89048 115.648L7.29549 121.949L16.5129 121.643C20.1786 121.51 22.0787 122.491 22.2132 124.584C22.2508 125.169 22.1823 125.703 22.0075 126.184L20.778 126.263C20.9358 125.974 20.9906 125.456 20.9427 124.709C20.9041 124.109 20.5017 123.68 19.7355 123.42C18.9693 123.161 17.6329 123.063 15.7264 123.127L6.11244 123.436L5.52114 114.237L21.1529 113.232Z" fill="#B18D60"/>
<path d="M5.27315 106.042L5.48214 104.45L16.5103 100.727L6.81047 94.3288L7.01659 92.7583L19.0296 100.636C20.1874 101.395 20.9254 102.083 21.2436 102.702C21.5618 103.321 21.6646 104.059 21.552 104.917C21.4871 105.412 21.2856 105.932 20.9475 106.48L19.6824 106.314C19.9995 105.926 20.2067 105.362 20.304 104.62C20.4166 103.762 19.8052 102.898 18.4698 102.027L18.0811 101.777L5.27315 106.042Z" fill="#B18D60"/>
<path d="M19.2115 78.8331C19.17 79.3757 19.0638 80.1596 18.8928 81.1847C18.7079 82.2052 18.5158 83.0146 18.3167 83.613C18.0436 84.4341 17.7239 85.1161 17.3578 85.6589C16.9778 86.1972 16.6001 86.5893 16.2245 86.8353C15.849 87.0814 15.4247 87.2416 14.9517 87.3161C14.4832 87.3766 14.0658 87.3769 13.6994 87.3168C13.319 87.2521 12.8992 87.1433 12.44 86.9905L8.32761 85.6223L8.79988 84.2028L12.8288 85.5432C13.121 85.6405 13.3901 85.7145 13.6359 85.7654C13.8817 85.8163 14.1855 85.8324 14.5473 85.8136C14.8998 85.7763 15.2151 85.688 15.4933 85.5487C15.7622 85.3908 16.0427 85.1286 16.3346 84.7621C16.6127 84.3909 16.8467 83.92 17.0365 83.3494C17.5458 81.8186 17.8672 80.1788 18.0007 78.4302L11.446 76.2495L11.9183 74.83L26.7812 79.7749L26.309 81.1944L19.2115 78.8331Z" fill="#B18D60"/>
<path d="M28.4618 73.6655L15.2443 65.2596L16.0472 63.9972L28.1879 71.7184L32.2964 65.2582L20.1557 57.537L20.9585 56.2747L33.0992 63.9959L37.2078 57.5357L25.067 49.8145L25.8698 48.5521L39.0873 56.9581L28.4618 73.6655Z" fill="#B18D60"/>
<path d="M43.4542 51.4735L32.7835 40.0063L33.8787 38.9871L43.4553 49.2787L40.3854 32.9324L41.8027 31.6136L52.4734 43.0808L51.3782 44.0999L41.8015 33.8084L44.8715 50.1546L43.4542 51.4735Z" fill="#B18D60"/>
<path d="M50.588 20.0754L51.3279 19.641C51.6733 20.0845 52.0984 20.3451 52.6033 20.4229C53.1082 20.5006 53.6388 20.3761 54.1953 20.0494C54.7392 19.7301 55.1102 19.3336 55.3084 18.8601C55.4992 18.3739 55.494 17.8582 55.293 17.313L56.0329 16.8785C56.7073 18.6936 56.2667 20.0578 54.711 20.9711C53.9269 21.4316 53.1846 21.5867 52.4842 21.4367C51.7891 21.2666 51.157 20.8128 50.588 20.0754ZM57.8579 38.4104L49.927 24.9025L51.2171 24.1451L58.3349 36.268L58.8817 19.645L60.5512 18.6647L68.4821 32.1726L67.192 32.93L60.0742 20.8071L59.5274 37.4301L57.8579 38.4104Z" fill="#B18D60"/>
<path d="M92.1546 7.68073L95.4314 22.9982L93.9685 23.3111L90.9586 9.24144L81.8155 11.1974L84.8253 25.267L83.3624 25.58L80.0857 10.2625L92.1546 7.68073Z" fill="#B18D60"/>
<path d="M102.877 6.14809L109.587 6.12962C111.098 6.12547 112.294 6.50351 113.176 7.26375C114.073 8.00929 114.523 9.09338 114.527 10.516C114.531 12.012 114.087 13.1499 113.195 13.9297C112.302 14.7095 111.093 15.1015 109.568 15.1057L104.398 15.1199L104.416 21.8079L102.92 21.812L102.877 6.14809ZM104.377 7.41997L104.394 13.8659L109.146 13.8529C110.305 13.8497 111.243 13.5904 111.96 13.0751C112.678 12.5451 113.035 11.7302 113.032 10.6302C113.029 9.54483 112.696 8.73908 112.035 8.2129C111.373 7.67205 110.456 7.40324 109.283 7.40647L104.377 7.41997Z" fill="#B18D60"/>
<path d="M129.869 7.52496C132.009 7.97149 133.59 9.08068 134.614 10.8525C135.651 12.6274 135.92 14.7137 135.42 17.1113C134.922 19.4946 133.852 21.2863 132.208 22.4864C130.567 23.6721 128.662 24.0387 126.494 23.5862C124.341 23.1367 122.758 22.0347 121.746 20.2802C120.734 18.5256 120.478 16.4496 120.978 14.0519C121.479 11.6543 122.544 9.85388 124.173 8.6508C125.817 7.45071 127.716 7.07543 129.869 7.52496ZM129.583 8.79108C127.874 8.43445 126.36 8.76262 125.04 9.77557C123.734 10.7915 122.871 12.3045 122.452 14.3145C122.023 16.3676 122.202 18.1281 122.99 19.5959C123.78 21.0494 125.044 21.9575 126.781 22.3201C128.518 22.6827 130.04 22.356 131.346 21.3401C132.666 20.3271 133.537 18.8085 133.96 16.7841C134.382 14.7597 134.193 13.0121 133.391 11.5413C132.589 10.0704 131.32 9.1537 129.583 8.79108Z" fill="#B18D60"/>
<path d="M149.874 35.5329L148.508 34.9221L150.233 31.0662L139.147 26.1082L137.422 29.9641L136.057 29.3533L138.302 24.3326L139.608 24.9164C140.268 24.4087 140.882 23.8636 141.448 23.2811C142.033 22.6913 142.584 22.0143 143.103 21.25C143.622 20.4858 144.038 19.8606 144.352 19.3744C144.679 18.8941 145.071 18.178 145.529 17.226C146.001 16.28 146.293 15.6798 146.407 15.4254C146.527 15.1576 146.805 14.535 147.242 13.5577L147.611 12.7343L156.487 16.7043L150.613 29.8385L152.119 30.5122L149.874 35.5329ZM149.247 29.2278L154.601 17.2583L148.455 14.5099L148.338 14.7709C147.823 15.9224 147.403 16.8268 147.077 17.4842C146.751 18.1417 146.27 19.0356 145.636 20.1659C145.008 21.2828 144.31 22.2878 143.541 23.181C142.778 24.0608 141.949 24.8549 141.054 25.5631L149.247 29.2278Z" fill="#B18D60"/>
<path d="M164.428 20.6729L165.735 21.6073L163.824 33.0889L174.037 27.5465L175.325 28.4681L162.717 35.354C161.503 36.018 160.548 36.3447 159.852 36.334C159.157 36.3233 158.457 36.0662 157.753 35.5627C157.347 35.2726 156.983 34.8495 156.659 34.2934L157.402 33.2556C157.594 33.7178 157.994 34.1665 158.603 34.6017C159.307 35.1052 160.357 34.9729 161.754 34.205L162.158 33.9802L164.428 20.6729Z" fill="#B18D60"/>
<path d="M189.832 42.2429L180.324 41.5734L178.766 53.3346L177.442 51.9526L178.862 41.5111L174.823 41.2383L170.836 45.0588L169.816 43.9945L181.125 33.157L182.145 34.2213L176.062 40.051L188.462 40.8133L189.832 42.2429Z" fill="#B18D60"/>
<path d="M200.663 57.266L199.595 57.9647L196.584 53.3627L184.545 61.2417L183.725 59.99L195.764 52.1109L192.753 47.5089L193.82 46.8101L200.663 57.266Z" fill="#B18D60"/>
<path d="M197.636 86.6513L196.461 87.0191L193.433 77.3394C193.834 77.2449 194.211 77.173 194.565 77.124C194.936 77.0845 195.3 77.0936 195.656 77.1513C196.017 77.2229 196.327 77.2797 196.586 77.3217C196.849 77.3776 197.164 77.5018 197.532 77.6942C197.904 77.9006 198.182 78.0519 198.365 78.1481C198.549 78.2443 198.833 78.4398 199.217 78.7345C199.62 79.0389 199.885 79.248 200.013 79.3617C200.155 79.471 200.452 79.7085 200.904 80.0741C201.398 80.473 201.738 80.7507 201.925 80.9073C202.127 81.0595 202.461 81.293 202.928 81.6079C203.41 81.9183 203.812 82.123 204.134 82.2218C204.457 82.3206 204.841 82.3927 205.285 82.4381C205.744 82.4791 206.19 82.4317 206.624 82.296C207.534 82.0115 208.168 81.4828 208.525 80.7102C208.901 79.9472 208.936 79.0757 208.63 78.0959C208.258 76.906 207.618 76.1612 206.709 75.8613C205.805 75.5754 204.752 75.6207 203.548 75.9972L203.141 74.6953L203.33 74.6362C204.883 74.1503 206.232 74.1894 207.377 74.7534C208.536 75.3131 209.345 76.3279 209.804 77.7977C210.233 79.1695 210.199 80.3865 209.702 81.4488C209.204 82.5111 208.325 83.2393 207.065 83.6333C206.659 83.7602 206.241 83.822 205.809 83.8186C205.396 83.8248 205.03 83.8087 204.711 83.7703C204.392 83.7319 204.007 83.6064 203.556 83.3939C203.119 83.177 202.782 83.006 202.543 82.881C202.322 82.7655 201.981 82.5342 201.519 82.1869C201.071 81.8353 200.774 81.5978 200.628 81.4745C200.481 81.3512 200.171 81.0949 199.696 80.7057C199.175 80.2692 198.812 79.9678 198.606 79.8017C198.405 79.6495 198.063 79.4181 197.582 79.1076C197.119 78.8068 196.689 78.6109 196.292 78.52C195.895 78.4291 195.482 78.4121 195.054 78.4691C195.072 78.5251 195.092 78.588 195.113 78.658C195.154 78.7376 195.178 78.7914 195.187 78.8194L197.636 86.6513Z" fill="#B18D60"/>
<path d="M214.037 95.5677C214.502 99.1308 212.094 101.257 206.815 101.945C201.637 102.621 198.817 101.184 198.354 97.6353C197.892 94.0867 200.213 91.9795 205.317 91.3137C210.669 90.6156 213.576 92.0336 214.037 95.5677ZM212.818 95.7488C212.729 95.0653 212.491 94.4899 212.105 94.0226C211.735 93.5679 211.307 93.2391 210.822 93.0361C210.337 92.8332 209.75 92.6953 209.06 92.6226C208.37 92.5499 207.761 92.5259 207.231 92.5505C206.704 92.5897 206.113 92.652 205.459 92.7374C201.168 93.297 199.193 94.8784 199.532 97.4817C199.87 100.07 202.25 101.076 206.671 100.5C211.107 99.9212 213.156 98.3376 212.818 95.7488Z" fill="#B18D60"/>
<path d="M200.744 117.875L199.513 117.822L199.95 107.689C200.359 107.736 200.738 107.796 201.087 107.87C201.451 107.959 201.79 108.091 202.105 108.266C202.42 108.456 202.692 108.615 202.922 108.742C203.15 108.884 203.405 109.108 203.685 109.414C203.965 109.734 204.175 109.971 204.315 110.123C204.456 110.276 204.656 110.557 204.918 110.964C205.193 111.387 205.371 111.674 205.453 111.824C205.549 111.975 205.748 112.299 206.05 112.797C206.379 113.339 206.605 113.716 206.728 113.927C206.865 114.139 207.1 114.472 207.433 114.926C207.78 115.382 208.089 115.711 208.359 115.913C208.63 116.116 208.966 116.314 209.369 116.507C209.786 116.701 210.222 116.808 210.676 116.828C211.629 116.869 212.404 116.587 213.003 115.982C213.615 115.391 213.944 114.583 213.988 113.558C214.042 112.312 213.693 111.394 212.94 110.804C212.187 110.228 211.18 109.913 209.92 109.859L209.979 108.496L210.177 108.505C211.803 108.575 213.059 109.07 213.944 109.989C214.844 110.908 215.261 112.137 215.194 113.676C215.132 115.112 214.687 116.245 213.858 117.075C213.03 117.906 211.956 118.293 210.637 118.236C210.212 118.217 209.798 118.133 209.393 117.984C209.003 117.849 208.664 117.71 208.376 117.566C208.089 117.421 207.769 117.172 207.417 116.819C207.08 116.467 206.821 116.192 206.638 115.993C206.47 115.81 206.228 115.476 205.911 114.993C205.609 114.51 205.41 114.186 205.314 114.02C205.219 113.855 205.013 113.508 204.698 112.981C204.357 112.393 204.117 111.987 203.98 111.761C203.843 111.549 203.6 111.216 203.253 110.76C202.92 110.32 202.581 109.99 202.239 109.77C201.896 109.549 201.514 109.393 201.092 109.302C201.089 109.36 201.086 109.426 201.083 109.5C201.094 109.588 201.099 109.647 201.098 109.676L200.744 117.875Z" fill="#B18D60"/>
<path d="M201.899 134.079L200.781 133.836L201.274 131.557L197.533 130.747L197.803 129.5L201.544 130.31L203.048 123.365L204.317 123.64L212.831 132.867L212.584 134.007L202.392 131.799L201.899 134.079ZM202.662 130.552L208.597 131.838C209.557 132.046 210.38 132.231 211.065 132.395C208.955 130.287 206.576 127.723 203.929 124.704L202.662 130.552Z" fill="#B18D60"/>
<path d="M201.24 152.946C201.562 153.976 201.47 154.971 200.967 155.933C200.463 156.894 199.696 157.535 198.667 157.857C197.637 158.178 196.642 158.087 195.68 157.584C194.719 157.08 194.078 156.313 193.756 155.284C193.435 154.254 193.526 153.259 194.029 152.297C194.533 151.336 195.3 150.695 196.329 150.373C197.359 150.051 198.354 150.143 199.316 150.646C200.277 151.15 200.919 151.917 201.24 152.946Z" fill="#B18D60"/>
<path d="M182.955 186.982L171.751 176.035L172.796 174.965L183.087 185.02L189.622 178.333L179.331 168.277L180.376 167.207L191.58 178.154L182.955 186.982Z" fill="#B18D60"/>
<path d="M175.149 194.018L169.576 197.755C168.321 198.596 167.116 198.945 165.96 198.802C164.801 198.679 163.825 198.026 163.032 196.845C162.199 195.602 161.938 194.409 162.248 193.265C162.558 192.121 163.347 191.124 164.613 190.275L168.907 187.396L165.183 181.841L166.425 181.008L175.149 194.018ZM173.196 193.791L169.606 188.437L165.659 191.084C164.697 191.729 164.06 192.465 163.749 193.292C163.446 194.13 163.601 195.007 164.214 195.92C164.818 196.822 165.541 197.308 166.384 197.379C167.234 197.462 168.146 197.177 169.121 196.523L173.196 193.791Z" fill="#B18D60"/>
<path d="M151.951 207.868C149.925 208.685 147.993 208.642 146.158 207.738C144.309 206.839 142.926 205.254 142.01 202.982C141.099 200.724 140.993 198.64 141.693 196.729C142.398 194.831 143.778 193.468 145.832 192.639C147.872 191.816 149.8 191.853 151.617 192.749C153.433 193.645 154.8 195.229 155.716 197.5C156.632 199.772 156.747 201.86 156.061 203.766C155.361 205.678 153.991 207.045 151.951 207.868ZM151.486 206.656C153.105 206.003 154.181 204.888 154.716 203.313C155.237 201.742 155.113 200.005 154.345 198.101C153.56 196.156 152.433 194.792 150.963 194.009C149.498 193.24 147.943 193.187 146.297 193.851C144.651 194.515 143.568 195.632 143.047 197.203C142.512 198.778 142.631 200.525 143.405 202.443C144.179 204.361 145.308 205.708 146.791 206.486C148.275 207.263 149.84 207.32 151.486 206.656Z" fill="#B18D60"/>
<path d="M119.593 195.726L121.068 195.481L121.76 199.648L133.74 197.66L133.049 193.493L134.524 193.248L135.425 198.674L134.014 198.908C133.743 199.697 133.533 200.49 133.383 201.288C133.221 202.103 133.135 202.972 133.124 203.895C133.114 204.819 133.112 205.57 133.119 206.149C133.111 206.73 133.18 207.543 133.324 208.59C133.453 209.639 133.541 210.301 133.586 210.576C133.634 210.865 133.746 211.538 133.921 212.594L134.069 213.484L124.476 215.076L122.121 200.882L120.493 201.152L119.593 195.726ZM123.596 200.637L125.743 213.572L132.384 212.47L132.337 212.188C132.131 210.944 131.982 209.957 131.891 209.229C131.8 208.501 131.706 207.491 131.611 206.198C131.518 204.92 131.545 203.696 131.693 202.527C131.843 201.372 132.096 200.252 132.451 199.168L123.596 200.637Z" fill="#B18D60"/>
<path d="M101.321 207.796C101.447 205.32 102.199 203.376 103.578 201.963C104.957 200.549 106.73 199.898 108.898 200.008C110.685 200.099 112.153 200.695 113.301 201.796C114.449 202.897 115.103 204.347 115.261 206.147L113.789 206.072C113.61 204.682 113.102 203.555 112.264 202.69C111.427 201.825 110.298 201.357 108.877 201.285C107.193 201.199 105.808 201.723 104.722 202.858C103.622 203.991 102.985 205.552 102.81 207.541L111.115 207.963L111.052 209.215L102.79 208.795C102.859 210.62 103.386 212.101 104.371 213.237C105.341 214.388 106.624 215.004 108.22 215.085C109.495 215.15 110.596 214.861 111.525 214.218C112.452 213.589 113.063 212.702 113.356 211.557L114.85 211.633C114.597 213.147 113.824 214.334 112.532 215.194C111.225 216.067 109.78 216.464 108.198 216.384C105.928 216.268 104.188 215.387 102.98 213.739C101.757 212.091 101.204 210.11 101.321 207.796Z" fill="#B18D60"/>
<path d="M79.1355 211.319L87.5976 206.931L82.7931 196.084L84.6437 196.572L88.8769 206.222L92.4661 204.348L93.8754 199.009L95.3006 199.385L91.3027 214.531L89.8775 214.154L92.0281 206.008L81.0499 211.824L79.1355 211.319Z" fill="#B18D60"/>
<path d="M63.9727 194.317C64.9842 192.658 66.3002 191.587 67.9207 191.103C69.5215 190.625 71.1611 190.807 72.8396 191.648C74.7803 192.62 76.0024 194.061 76.5059 195.97C77.0094 197.879 76.706 199.942 75.5958 202.158C74.5577 204.23 73.107 205.685 71.2435 206.523C69.3669 207.354 67.4124 207.261 65.3799 206.243C63.9637 205.533 62.9085 204.479 62.2144 203.082C61.5006 201.691 61.4066 200.274 61.9325 198.831L63.27 199.501C62.9608 200.642 63.055 201.715 63.5527 202.719C64.0438 203.736 64.8598 204.53 66.0006 205.102C67.548 205.877 69.086 205.934 70.6149 205.273C72.124 204.618 73.345 203.36 74.2779 201.498C75.2108 199.636 75.4942 197.908 75.1282 196.313C74.7425 194.726 73.776 193.544 72.2287 192.769C70.878 192.092 69.5958 191.967 68.382 192.392C67.1617 192.831 66.1312 193.692 65.2906 194.977L63.9727 194.317Z" fill="#B18D60"/>
<path d="M41.8649 190.519L51.7034 178.331L52.8675 179.27L43.8304 190.466L51.106 196.339L60.1431 185.143L61.3071 186.083L51.4686 198.271L41.8649 190.519Z" fill="#B18D60"/>
<path d="M29.3439 178.245C27.983 176.535 27.4746 174.671 27.8187 172.654C28.1536 170.626 29.2793 168.849 31.1958 167.324C33.1008 165.807 35.069 165.113 37.1004 165.239C39.1203 165.375 40.8198 166.309 42.199 168.042C43.569 169.763 44.0831 171.622 43.7413 173.619C43.3996 175.615 42.2705 177.376 40.3541 178.901C38.4376 180.427 36.4682 181.132 34.446 181.017C32.4146 180.89 30.7139 179.966 29.3439 178.245ZM30.3732 177.454C31.46 178.819 32.8349 179.534 34.4976 179.598C36.1513 179.65 37.7814 179.037 39.388 177.758C41.0291 176.452 42.0154 174.983 42.3471 173.351C42.6673 171.727 42.2748 170.222 41.1697 168.833C40.0645 167.444 38.6851 166.724 37.0315 166.672C35.3687 166.608 33.7283 167.22 32.1102 168.508C30.4921 169.796 29.5218 171.261 29.1993 172.905C28.8767 174.549 29.268 176.065 30.3732 177.454Z" fill="#B18D60"/>
<path d="M19.5258 152.664C18.5349 152.238 17.8383 151.522 17.4361 150.514C17.0339 149.505 17.0456 148.506 17.4714 147.515C17.8971 146.524 18.614 145.827 19.622 145.425C20.6301 145.023 21.6296 145.035 22.6206 145.46C23.6116 145.886 24.3082 146.603 24.7104 147.611C25.1126 148.619 25.1009 149.619 24.6751 150.61C24.2494 151.601 23.5325 152.297 22.5244 152.7C21.5164 153.102 20.5168 153.09 19.5258 152.664Z" fill="#B18D60"/>
<path d="M105.225 76.8026C104.025 76.3946 103.101 75.7466 102.453 74.8586C101.829 73.9466 101.517 72.8546 101.517 71.5826C101.517 69.6146 102.321 67.9946 103.929 66.7226C105.537 65.4266 107.553 64.7786 109.977 64.7786C112.425 64.7786 114.441 65.4266 116.025 66.7226C117.633 67.9946 118.437 69.6146 118.437 71.5826C118.437 74.2466 117.213 75.9866 114.765 76.8026C116.229 77.1626 117.381 77.8946 118.221 78.9986C119.061 80.0786 119.481 81.3986 119.481 82.9586C119.481 85.2626 118.605 87.1226 116.853 88.5386C115.125 89.9306 112.833 90.6266 109.977 90.6266C107.121 90.6266 104.829 89.9306 103.101 88.5386C101.373 87.1226 100.509 85.2626 100.509 82.9586C100.509 81.3986 100.929 80.0786 101.769 78.9986C102.609 77.8946 103.761 77.1626 105.225 76.8026ZM109.977 68.6306C108.849 68.6306 107.937 68.9306 107.241 69.5306C106.545 70.1306 106.197 70.9226 106.197 71.9066C106.197 72.9386 106.545 73.7666 107.241 74.3906C107.937 74.9906 108.861 75.2906 110.013 75.2906C111.189 75.2906 112.113 74.9906 112.785 74.3906C113.481 73.7666 113.829 72.9386 113.829 71.9066C113.829 70.8746 113.481 70.0706 112.785 69.4946C112.113 68.9186 111.177 68.6306 109.977 68.6306ZM109.869 78.6386C108.621 78.6386 107.601 79.0106 106.809 79.7546C106.017 80.4986 105.621 81.4586 105.621 82.6346C105.621 83.8586 106.017 84.8546 106.809 85.6226C107.625 86.3666 108.681 86.7386 109.977 86.7386C111.297 86.7386 112.353 86.3666 113.145 85.6226C113.961 84.8786 114.369 83.8946 114.369 82.6706C114.369 81.4706 113.949 80.4986 113.109 79.7546C112.293 79.0106 111.213 78.6386 109.869 78.6386Z" fill="#B18D60"/>
<path d="M75.3044 116.492C75.3044 117.591 74.8777 118.492 74.0244 119.196C73.1711 119.9 72.1044 120.252 70.8244 120.252C69.2777 120.252 68.0671 119.9 67.1924 119.196C66.3284 118.481 65.8911 117.479 65.8804 116.188H68.3604C68.3817 116.913 68.6164 117.452 69.0644 117.804C69.5124 118.156 70.0991 118.332 70.8244 118.332C71.4004 118.332 71.8697 118.161 72.2324 117.82C72.6057 117.468 72.7924 117.031 72.7924 116.508C72.7924 115.441 72.0777 114.908 70.6484 114.908H69.7844V113.212C69.9124 113.223 70.1364 113.228 70.4564 113.228C71.8324 113.228 72.5204 112.711 72.5204 111.676C72.5204 111.239 72.3657 110.903 72.0564 110.668C71.7471 110.423 71.3311 110.3 70.8084 110.3C70.1897 110.3 69.6937 110.449 69.3204 110.748C68.9471 111.036 68.7391 111.452 68.6964 111.996H66.3284C66.3497 110.791 66.7817 109.884 67.6244 109.276C68.4671 108.668 69.5337 108.364 70.8244 108.364C71.9977 108.364 72.9631 108.657 73.7204 109.244C74.4884 109.82 74.8724 110.577 74.8724 111.516C74.8724 112.081 74.7124 112.577 74.3924 113.004C74.0724 113.42 73.6564 113.687 73.1444 113.804C73.7737 113.9 74.2911 114.193 74.6964 114.684C75.1017 115.175 75.3044 115.777 75.3044 116.492ZM84.111 108.332C85.775 108.332 87.119 108.887 88.143 109.996C89.1777 111.095 89.695 112.535 89.695 114.316C89.695 116.097 89.1777 117.537 88.143 118.636C87.119 119.724 85.7697 120.268 84.095 120.268C82.4097 120.268 81.0497 119.724 80.015 118.636C78.9804 117.537 78.463 116.097 78.463 114.316C78.463 112.513 78.975 111.068 79.999 109.98C81.0337 108.881 82.4044 108.332 84.111 108.332ZM84.079 110.38C83.1404 110.38 82.3884 110.732 81.823 111.436C81.2684 112.14 80.991 113.084 80.991 114.268C80.991 115.495 81.2684 116.455 81.823 117.148C82.3777 117.841 83.1404 118.193 84.111 118.204C85.0604 118.204 85.807 117.852 86.351 117.148C86.895 116.444 87.167 115.484 87.167 114.268C87.167 113.073 86.8897 112.129 86.335 111.436C85.7804 110.732 85.0284 110.38 84.079 110.38ZM102.302 108.604V119.996H99.8063V110.732H96.7503L96.5903 115.564C96.4836 118.668 95.4276 120.22 93.4223 120.22C92.8676 120.22 92.3983 120.156 92.0143 120.028V118.012C92.2703 118.14 92.5636 118.204 92.8943 118.204C93.2889 118.204 93.5929 118.028 93.8063 117.676C94.0196 117.313 94.1423 116.599 94.1743 115.532L94.3663 108.604H102.302ZM111.529 108.332C113.193 108.332 114.537 108.887 115.561 109.996C116.596 111.095 117.113 112.535 117.113 114.316C117.113 116.097 116.596 117.537 115.561 118.636C114.537 119.724 113.188 120.268 111.513 120.268C109.828 120.268 108.468 119.724 107.433 118.636C106.398 117.537 105.881 116.097 105.881 114.316C105.881 112.513 106.393 111.068 107.417 109.98C108.452 108.881 109.822 108.332 111.529 108.332ZM111.497 110.38C110.558 110.38 109.806 110.732 109.241 111.436C108.686 112.14 108.409 113.084 108.409 114.268C108.409 115.495 108.686 116.455 109.241 117.148C109.796 117.841 110.558 118.193 111.529 118.204C112.478 118.204 113.225 117.852 113.769 117.148C114.313 116.444 114.585 115.484 114.585 114.268C114.585 113.073 114.308 112.129 113.753 111.436C113.198 110.732 112.446 110.38 111.497 110.38ZM128.933 108.604V110.732H125.509V119.996H122.997V110.732H119.573V108.604H128.933ZM140.778 116.332C140.778 117.548 140.4 118.465 139.642 119.084C138.896 119.692 137.882 119.996 136.602 119.996H132.17V108.604H134.65V112.7H136.73C137.936 112.7 138.912 113.009 139.658 113.628C140.405 114.236 140.778 115.137 140.778 116.332ZM138.346 116.3C138.346 115.212 137.696 114.668 136.394 114.668H134.65V117.948H136.41C137.701 117.948 138.346 117.399 138.346 116.3ZM141.994 108.604H144.49V119.996H141.994V108.604ZM157.918 108.604L154.254 114.044L158.254 119.996H155.262L152.766 116.044L150.238 119.996H147.39L151.406 114.044L147.694 108.604H150.606L152.878 112.268L155.166 108.604H157.918ZM66.164 140.996V129.604H69.732L72.388 137.428L74.98 129.604H78.468V140.996H76.116V132.9L73.316 140.996H71.38L68.548 132.98V140.996H66.164ZM91.1436 129.604V131.652H85.0796V134.132H90.6476V136.1H85.0796V138.9H91.2556V140.996H82.5996V129.604H91.1436ZM105.983 143.924H103.567V140.996H96.3346V143.924H93.9186V138.868H94.7826C95.4333 137.993 95.8973 136.953 96.1746 135.748C96.4626 134.532 96.6066 133.06 96.6066 131.332V129.604H104.719V138.868H105.983V143.924ZM102.223 138.868V131.636H99.0866V131.828C99.0866 134.676 98.58 137.023 97.5666 138.868H102.223ZM114.932 129.588L119.268 140.996H116.644L115.748 138.452H111.508L110.58 140.996H108.02L112.356 129.588H114.932ZM115.14 136.628L113.636 132.388L112.116 136.628H115.14ZM131.533 129.604V140.996H129.037V131.732H125.981L125.821 136.564C125.714 139.668 124.658 141.22 122.653 141.22C122.098 141.22 121.629 141.156 121.245 141.028V139.012C121.501 139.14 121.794 139.204 122.125 139.204C122.52 139.204 122.824 139.028 123.037 138.676C123.25 138.313 123.373 137.599 123.405 136.532L123.597 129.604H131.533ZM144.152 129.604V131.652H138.088V134.132H143.656V136.1H138.088V138.9H144.264V140.996H135.608V129.604H144.152ZM157.551 129.604V140.996H155.055V133.092H155.007L150.719 140.996H147.903V129.604H150.399V137.492H150.447L154.735 129.604H157.551ZM154.447 126.532H155.343C155.343 128.068 154.473 128.836 152.735 128.836C150.996 128.836 150.127 128.068 150.127 126.532H151.023C151.161 127.236 151.732 127.588 152.735 127.588C153.737 127.588 154.308 127.236 154.447 126.532ZM99.6458 160.028V161.996H91.4378C91.4485 161.495 91.5125 161.036 91.6298 160.62C91.7578 160.193 91.9018 159.836 92.0618 159.548C92.2325 159.26 92.4885 158.956 92.8298 158.636C93.1712 158.316 93.4698 158.06 93.7258 157.868C93.9925 157.676 94.3765 157.409 94.8778 157.068C94.9418 157.025 95.1125 156.913 95.3898 156.732C95.6672 156.551 95.8592 156.423 95.9658 156.348C96.0725 156.273 96.2325 156.145 96.4458 155.964C96.6592 155.772 96.8085 155.607 96.8938 155.468C96.9898 155.329 97.0805 155.159 97.1658 154.956C97.2512 154.743 97.2938 154.524 97.2938 154.3C97.2938 153.809 97.1445 153.42 96.8458 153.132C96.5578 152.833 96.1738 152.684 95.6938 152.684C94.5418 152.684 93.9338 153.495 93.8698 155.116H91.6938V154.876C91.6938 153.607 92.0618 152.599 92.7978 151.852C93.5338 151.095 94.5258 150.716 95.7738 150.716C96.9045 150.716 97.8218 151.036 98.5258 151.676C99.2298 152.305 99.5818 153.127 99.5818 154.14C99.5818 154.961 99.3952 155.617 99.0218 156.108C98.6485 156.599 98.0618 157.116 97.2618 157.66C97.1552 157.735 96.9578 157.868 96.6698 158.06C96.3818 158.241 96.1525 158.391 95.9818 158.508C95.8218 158.625 95.6245 158.775 95.3898 158.956C95.1552 159.137 94.9525 159.319 94.7818 159.5C94.6112 159.671 94.4672 159.847 94.3498 160.028H99.6458ZM106.472 150.732C107.091 150.732 107.64 150.849 108.12 151.084C108.611 151.319 109.006 151.623 109.304 151.996C109.603 152.369 109.848 152.812 110.04 153.324C110.243 153.836 110.382 154.348 110.456 154.86C110.531 155.372 110.568 155.911 110.568 156.476C110.568 158.257 110.206 159.655 109.48 160.668C108.755 161.681 107.758 162.188 106.488 162.188C105.187 162.188 104.168 161.687 103.432 160.684C102.707 159.671 102.344 158.268 102.344 156.476C102.344 155.761 102.414 155.089 102.552 154.46C102.691 153.82 102.91 153.212 103.208 152.636C103.507 152.049 103.934 151.585 104.488 151.244C105.054 150.903 105.715 150.732 106.472 150.732ZM106.456 152.604C106.158 152.604 105.896 152.668 105.672 152.796C105.448 152.924 105.267 153.116 105.128 153.372C105 153.617 104.894 153.857 104.808 154.092C104.734 154.316 104.68 154.615 104.648 154.988C104.616 155.351 104.595 155.628 104.584 155.82C104.584 156.012 104.584 156.268 104.584 156.588C104.584 159.095 105.214 160.348 106.472 160.348C107.71 160.348 108.328 159.057 108.328 156.476C108.328 155.143 108.179 154.167 107.88 153.548C107.582 152.919 107.107 152.604 106.456 152.604ZM121.267 160.028V161.996H113.059C113.07 161.495 113.134 161.036 113.251 160.62C113.379 160.193 113.523 159.836 113.683 159.548C113.854 159.26 114.11 158.956 114.451 158.636C114.792 158.316 115.091 158.06 115.347 157.868C115.614 157.676 115.998 157.409 116.499 157.068C116.563 157.025 116.734 156.913 117.011 156.732C117.288 156.551 117.48 156.423 117.587 156.348C117.694 156.273 117.854 156.145 118.067 155.964C118.28 155.772 118.43 155.607 118.515 155.468C118.611 155.329 118.702 155.159 118.787 154.956C118.872 154.743 118.915 154.524 118.915 154.3C118.915 153.809 118.766 153.42 118.467 153.132C118.179 152.833 117.795 152.684 117.315 152.684C116.163 152.684 115.555 153.495 115.491 155.116H113.315V154.876C113.315 153.607 113.683 152.599 114.419 151.852C115.155 151.095 116.147 150.716 117.395 150.716C118.526 150.716 119.443 151.036 120.147 151.676C120.851 152.305 121.203 153.127 121.203 154.14C121.203 154.961 121.016 155.617 120.643 156.108C120.27 156.599 119.683 157.116 118.883 157.66C118.776 157.735 118.579 157.868 118.291 158.06C118.003 158.241 117.774 158.391 117.603 158.508C117.443 158.625 117.246 158.775 117.011 158.956C116.776 159.137 116.574 159.319 116.403 159.5C116.232 159.671 116.088 159.847 115.971 160.028H121.267ZM132.254 157.532V159.42H130.75V161.996H128.638V159.42H123.838V157.324L128.702 150.764H130.75V157.532H132.254ZM128.638 157.532V153.372L125.662 157.532H128.638Z" fill="#B18D60"/>
</svg>
