<svg width="222" height="222" viewBox="0 0 222 222" fill="none" xmlns="http://www.w3.org/2000/svg">
<path d="M33.2278 123.641C26.0818 80.5757 55.2 39.8715 98.2651 32.7255C141.33 25.5795 182.034 54.6977 189.18 97.7628C196.327 140.828 167.208 181.532 124.143 188.678C81.078 195.824 40.3738 166.706 33.2278 123.641Z" stroke="#B18D60" stroke-opacity="0.6" stroke-width="4"/>
<path d="M21.7101 113.232L21.8061 114.725L7.44773 115.648L7.85275 121.949L17.0701 121.643C20.7358 121.51 22.6359 122.491 22.7705 124.584C22.8081 125.169 22.7395 125.703 22.5647 126.184L21.3352 126.263C21.493 125.974 21.5479 125.456 21.4999 124.709C21.4613 124.109 21.0589 123.68 20.2927 123.42C19.5265 123.161 18.1902 123.063 16.2836 123.127L6.66969 123.436L6.07839 114.237L21.7101 113.232Z" fill="#B18D60"/>
<path d="M5.8304 106.042L6.03939 104.45L17.0676 100.727L7.36772 94.3288L7.57384 92.7583L19.5868 100.636C20.7446 101.395 21.4826 102.083 21.8008 102.702C22.119 103.321 22.2218 104.059 22.1092 104.917C22.0444 105.412 21.8429 105.932 21.5048 106.48L20.2396 106.314C20.5567 105.926 20.7639 105.362 20.8613 104.62C20.9739 103.762 20.3625 102.898 19.0271 102.027L18.6384 101.777L5.8304 106.042Z" fill="#B18D60"/>
<path d="M19.7687 78.8331C19.7273 79.3757 19.6211 80.1596 19.45 81.1847C19.2651 82.2052 19.0731 83.0146 18.874 83.613C18.6008 84.4341 18.2812 85.1161 17.9151 85.6589C17.5351 86.1972 17.1573 86.5893 16.7818 86.8353C16.4062 87.0814 15.9819 87.2416 15.5089 87.3161C15.0405 87.3766 14.6231 87.3769 14.2566 87.3168C13.8763 87.2521 13.4565 87.1433 12.9972 86.9905L8.88486 85.6223L9.35713 84.2028L13.386 85.5432C13.6783 85.6405 13.9473 85.7145 14.1931 85.7654C14.439 85.8163 14.7428 85.8324 15.1045 85.8136C15.457 85.7763 15.7723 85.688 16.0505 85.5487C16.3195 85.3908 16.5999 85.1286 16.8919 84.7621C17.17 84.3909 17.4039 83.92 17.5938 83.3494C18.1031 81.8186 18.4245 80.1788 18.558 78.4302L12.0032 76.2495L12.4755 74.83L27.3385 79.7749L26.8662 81.1944L19.7687 78.8331Z" fill="#B18D60"/>
<path d="M29.019 73.6655L15.8016 65.2596L16.6044 63.9972L28.7452 71.7184L32.8537 65.2582L20.7129 57.537L21.5157 56.2747L33.6565 63.9959L37.765 57.5357L25.6243 49.8145L26.4271 48.5521L39.6445 56.9581L29.019 73.6655Z" fill="#B18D60"/>
<path d="M44.0114 51.4735L33.3408 40.0063L34.4359 38.9871L44.0126 49.2787L40.9426 32.9324L42.3599 31.6136L53.0306 43.0808L51.9354 44.0999L42.3588 33.8084L45.4287 50.1546L44.0114 51.4735Z" fill="#B18D60"/>
<path d="M51.1452 20.0754L51.8851 19.641C52.2305 20.0845 52.6557 20.3451 53.1606 20.4229C53.6654 20.5006 54.1961 20.3761 54.7526 20.0494C55.2965 19.7301 55.6675 19.3336 55.8657 18.8601C56.0564 18.3739 56.0513 17.8582 55.8502 17.313L56.5901 16.8785C57.2646 18.6936 56.824 20.0578 55.2683 20.9711C54.4841 21.4316 53.7419 21.5867 53.0415 21.4367C52.3463 21.2666 51.7142 20.8128 51.1452 20.0754ZM58.4152 38.4104L50.4843 24.9025L51.7744 24.1451L58.8921 36.268L59.4389 19.645L61.1084 18.6647L69.0393 32.1726L67.7493 32.93L60.6315 20.8071L60.0847 37.4301L58.4152 38.4104Z" fill="#B18D60"/>
<path d="M92.7119 7.68073L95.9886 22.9982L94.5257 23.3111L91.5159 9.24144L82.3728 11.1974L85.3826 25.267L83.9197 25.58L80.6429 10.2625L92.7119 7.68073Z" fill="#B18D60"/>
<path d="M103.434 6.14809L110.144 6.12962C111.655 6.12547 112.851 6.50351 113.734 7.26375C114.63 8.00929 115.081 9.09338 115.085 10.516C115.089 12.012 114.644 13.1499 113.752 13.9297C112.859 14.7095 111.65 15.1015 110.125 15.1057L104.955 15.1199L104.974 21.8079L103.478 21.812L103.434 6.14809ZM104.934 7.41997L104.952 13.8659L109.704 13.8529C110.862 13.8497 111.8 13.5904 112.518 13.0751C113.235 12.5451 113.592 11.7302 113.589 10.6302C113.586 9.54483 113.254 8.73908 112.592 8.2129C111.931 7.67205 111.013 7.40324 109.84 7.40647L104.934 7.41997Z" fill="#B18D60"/>
<path d="M130.427 7.52496C132.566 7.97149 134.147 9.08068 135.171 10.8525C136.209 12.6274 136.477 14.7137 135.977 17.1113C135.48 19.4946 134.409 21.2863 132.765 22.4864C131.124 23.6721 129.22 24.0387 127.052 23.5862C124.898 23.1367 123.315 22.0347 122.303 20.2802C121.291 18.5256 121.035 16.4496 121.535 14.0519C122.036 11.6543 123.101 9.85388 124.73 8.6508C126.374 7.45071 128.273 7.07543 130.427 7.52496ZM130.14 8.79108C128.431 8.43445 126.917 8.76262 125.597 9.77557C124.291 10.7915 123.428 12.3045 123.009 14.3145C122.58 16.3676 122.76 18.1281 123.547 19.5959C124.337 21.0494 125.601 21.9575 127.338 22.3201C129.076 22.6827 130.597 22.356 131.903 21.3401C133.223 20.3271 134.094 18.8085 134.517 16.7841C134.94 14.7597 134.75 13.0121 133.948 11.5413C133.147 10.0704 131.877 9.1537 130.14 8.79108Z" fill="#B18D60"/>
<path d="M150.431 35.5329L149.065 34.9221L150.79 31.0662L139.704 26.1082L137.98 29.9641L136.614 29.3533L138.859 24.3326L140.165 24.9164C140.826 24.4087 141.439 23.8636 142.005 23.2811C142.59 22.6913 143.142 22.0143 143.66 21.25C144.179 20.4858 144.595 19.8606 144.909 19.3744C145.236 18.8941 145.629 18.178 146.087 17.226C146.558 16.28 146.85 15.6798 146.964 15.4254C147.084 15.1576 147.362 14.535 147.8 13.5577L148.168 12.7343L157.044 16.7043L151.17 29.8385L152.676 30.5122L150.431 35.5329ZM149.805 29.2278L155.158 17.2583L149.012 14.5099L148.896 14.7709C148.381 15.9224 147.96 16.8268 147.634 17.4842C147.308 18.1417 146.828 19.0356 146.194 20.1659C145.566 21.2828 144.867 22.2878 144.098 23.181C143.335 24.0608 142.506 24.8549 141.611 25.5631L149.805 29.2278Z" fill="#B18D60"/>
<path d="M164.986 20.6729L166.292 21.6073L164.381 33.0889L174.594 27.5465L175.882 28.4681L163.274 35.354C162.06 36.018 161.105 36.3447 160.409 36.334C159.714 36.3233 159.014 36.0662 158.31 35.5627C157.905 35.2726 157.54 34.8495 157.217 34.2934L157.959 33.2556C158.151 33.7178 158.552 34.1665 159.16 34.6017C159.864 35.1052 160.914 34.9729 162.311 34.205L162.715 33.9802L164.986 20.6729Z" fill="#B18D60"/>
<path d="M190.389 42.2429L180.881 41.5734L179.323 53.3346L177.999 51.9526L179.42 41.5111L175.38 41.2383L171.393 45.0588L170.373 43.9945L181.683 33.157L182.703 34.2213L176.619 40.051L189.019 40.8133L190.389 42.2429Z" fill="#B18D60"/>
<path d="M201.22 57.266L200.153 57.9647L197.141 53.3627L185.102 61.2417L184.283 59.99L196.322 52.1109L193.31 47.5089L194.377 46.8101L201.22 57.266Z" fill="#B18D60"/>
<path d="M198.194 86.6516L197.018 87.0193L193.991 77.3397C194.391 77.2451 194.768 77.1733 195.122 77.1242C195.494 77.0847 195.858 77.0938 196.214 77.1515C196.574 77.2232 196.884 77.28 197.143 77.3219C197.406 77.3778 197.722 77.502 198.089 77.6944C198.461 77.9008 198.739 78.0521 198.923 78.1483C199.107 78.2445 199.391 78.44 199.775 78.7348C200.177 79.0392 200.442 79.2482 200.57 79.3619C200.712 79.4713 201.009 79.7087 201.462 80.0744C201.955 80.4732 202.295 80.7509 202.483 80.9075C202.684 81.0597 203.018 81.2932 203.486 81.6081C203.967 81.9186 204.369 82.1232 204.692 82.222C205.015 82.3208 205.398 82.3929 205.843 82.4383C206.301 82.4793 206.748 82.432 207.181 82.2963C208.091 82.0117 208.725 81.4831 209.083 80.7104C209.459 79.9474 209.494 79.076 209.187 78.0961C208.815 76.9063 208.175 76.1614 207.267 75.8615C206.363 75.5756 205.309 75.6209 204.105 75.9974L203.698 74.6956L203.887 74.6365C205.441 74.1505 206.79 74.1896 207.934 74.7537C209.093 75.3134 209.902 76.3281 210.362 77.7979C210.791 79.1697 210.756 80.3868 210.259 81.4491C209.761 82.5113 208.883 83.2395 207.623 83.6335C207.217 83.7605 206.798 83.8223 206.367 83.8188C205.954 83.8251 205.588 83.809 205.268 83.7705C204.949 83.7321 204.564 83.6067 204.113 83.3941C203.677 83.1773 203.339 83.0063 203.1 82.8812C202.88 82.7658 202.538 82.5344 202.076 82.1872C201.628 81.8356 201.331 81.5981 201.185 81.4748C201.039 81.3514 200.728 81.0951 200.253 80.7059C199.732 80.2694 199.369 79.9681 199.163 79.8019C198.962 79.6497 198.621 79.4184 198.14 79.1079C197.677 78.807 197.247 78.6111 196.849 78.5202C196.452 78.4293 196.04 78.4123 195.612 78.4693C195.629 78.5253 195.649 78.5883 195.671 78.6583C195.711 78.7379 195.736 78.7917 195.744 78.8197L198.194 86.6516Z" fill="#B18D60"/>
<path d="M214.594 95.5677C215.059 99.1308 212.651 101.257 207.372 101.945C202.195 102.621 199.375 101.184 198.912 97.6353C198.449 94.0867 200.77 91.9795 205.875 91.3137C211.227 90.6156 214.133 92.0336 214.594 95.5677ZM213.375 95.7488C213.286 95.0653 213.048 94.4899 212.662 94.0226C212.292 93.5679 211.865 93.2391 211.38 93.0361C210.895 92.8332 210.307 92.6953 209.617 92.6226C208.927 92.5499 208.318 92.5259 207.789 92.5505C207.261 92.5897 206.67 92.652 206.016 92.7374C201.726 93.297 199.75 94.8784 200.09 97.4817C200.427 100.07 202.807 101.076 207.228 100.5C211.664 99.9212 213.713 98.3376 213.375 95.7488Z" fill="#B18D60"/>
<path d="M201.301 117.875L200.07 117.822L200.507 107.689C200.916 107.736 201.296 107.796 201.645 107.87C202.008 107.959 202.347 108.091 202.663 108.266C202.977 108.456 203.249 108.615 203.479 108.742C203.708 108.884 203.962 109.108 204.243 109.414C204.522 109.734 204.732 109.971 204.873 110.123C205.013 110.276 205.214 110.557 205.475 110.964C205.75 111.387 205.929 111.674 206.01 111.824C206.107 111.975 206.305 112.299 206.607 112.797C206.936 113.339 207.162 113.716 207.285 113.927C207.422 114.139 207.658 114.472 207.99 114.926C208.338 115.382 208.646 115.711 208.917 115.913C209.187 116.116 209.523 116.314 209.926 116.507C210.343 116.701 210.779 116.808 211.233 116.828C212.186 116.869 212.961 116.587 213.56 115.982C214.173 115.391 214.501 114.583 214.545 113.558C214.599 112.312 214.25 111.394 213.497 110.804C212.744 110.228 211.737 109.913 210.477 109.859L210.536 108.496L210.734 108.505C212.36 108.575 213.616 109.07 214.501 109.989C215.401 110.908 215.818 112.137 215.752 113.676C215.69 115.112 215.244 116.245 214.416 117.075C213.587 117.906 212.513 118.293 211.195 118.236C210.77 118.217 210.355 118.133 209.95 117.984C209.56 117.849 209.221 117.71 208.933 117.566C208.646 117.421 208.327 117.172 207.975 116.819C207.638 116.467 207.378 116.192 207.196 115.993C207.027 115.81 206.785 115.476 206.468 114.993C206.166 114.51 205.967 114.186 205.871 114.02C205.776 113.855 205.571 113.508 205.256 112.981C204.914 112.393 204.675 111.987 204.538 111.761C204.4 111.549 204.157 111.216 203.81 110.76C203.477 110.32 203.139 109.99 202.796 109.77C202.453 109.549 202.071 109.393 201.649 109.302C201.646 109.36 201.644 109.426 201.64 109.5C201.651 109.588 201.656 109.647 201.655 109.676L201.301 117.875Z" fill="#B18D60"/>
<path d="M213.405 132.578L198.397 129.328L198.705 127.909L209.886 130.33L210.728 126.438L211.76 126.662C211.657 127.21 211.586 127.607 211.547 127.854C211.523 128.104 211.501 128.414 211.481 128.785C211.46 129.156 211.491 129.432 211.571 129.615C211.649 129.812 211.766 130.032 211.923 130.276C212.08 130.52 212.297 130.732 212.573 130.912C212.864 131.095 213.22 131.285 213.643 131.482L213.405 132.578Z" fill="#B18D60"/>
<path d="M201.797 152.946C202.119 153.976 202.028 154.971 201.524 155.933C201.02 156.894 200.253 157.535 199.224 157.857C198.194 158.178 197.199 158.087 196.238 157.584C195.276 157.08 194.635 156.313 194.313 155.284C193.992 154.254 194.083 153.259 194.587 152.297C195.091 151.336 195.857 150.695 196.887 150.373C197.916 150.051 198.912 150.143 199.873 150.646C200.834 151.15 201.476 151.917 201.797 152.946Z" fill="#B18D60"/>
<path d="M183.512 186.982L172.308 176.035L173.354 174.965L183.645 185.02L190.179 178.333L179.888 168.277L180.934 167.207L192.137 178.154L183.512 186.982Z" fill="#B18D60"/>
<path d="M175.706 194.018L170.133 197.755C168.878 198.596 167.673 198.945 166.518 198.802C165.358 198.679 164.382 198.026 163.59 196.845C162.756 195.602 162.495 194.409 162.805 193.265C163.115 192.121 163.904 191.124 165.171 190.275L169.465 187.396L165.74 181.841L166.982 181.008L175.706 194.018ZM173.753 193.791L170.163 188.437L166.216 191.084C165.254 191.729 164.617 192.465 164.306 193.292C164.003 194.13 164.158 195.007 164.771 195.92C165.375 196.822 166.099 197.308 166.941 197.379C167.791 197.462 168.704 197.177 169.678 196.523L173.753 193.791Z" fill="#B18D60"/>
<path d="M152.508 207.868C150.482 208.685 148.551 208.642 146.715 207.738C144.866 206.839 143.483 205.254 142.567 202.982C141.656 200.724 141.55 198.64 142.25 196.729C142.955 194.831 144.335 193.468 146.389 192.639C148.429 191.816 150.357 191.853 152.174 192.749C153.99 193.645 155.357 195.229 156.273 197.5C157.19 199.772 157.305 201.86 156.618 203.766C155.919 205.678 154.549 207.045 152.508 207.868ZM152.043 206.656C153.662 206.003 154.738 204.888 155.273 203.313C155.794 201.742 155.671 200.005 154.902 198.101C154.118 196.156 152.99 194.792 151.52 194.009C150.055 193.24 148.5 193.187 146.854 193.851C145.208 194.515 144.125 195.632 143.604 197.203C143.069 198.778 143.189 200.525 143.962 202.443C144.736 204.361 145.865 205.708 147.349 206.486C148.833 207.263 150.397 207.32 152.043 206.656Z" fill="#B18D60"/>
<path d="M120.15 195.726L121.626 195.481L122.317 199.648L134.297 197.66L133.606 193.493L135.082 193.248L135.982 198.674L134.571 198.908C134.301 199.697 134.09 200.49 133.94 201.288C133.778 202.103 133.692 202.972 133.681 203.895C133.671 204.819 133.669 205.57 133.676 206.149C133.669 206.73 133.737 207.543 133.881 208.59C134.01 209.639 134.098 210.301 134.143 210.576C134.191 210.865 134.303 211.538 134.478 212.594L134.626 213.484L125.033 215.076L122.678 200.882L121.05 201.152L120.15 195.726ZM124.154 200.637L126.3 213.572L132.941 212.47L132.894 212.188C132.688 210.944 132.539 209.957 132.448 209.229C132.357 208.501 132.264 207.491 132.168 206.198C132.075 204.92 132.102 203.696 132.25 202.527C132.401 201.372 132.653 200.252 133.009 199.168L124.154 200.637Z" fill="#B18D60"/>
<path d="M101.879 207.796C102.004 205.32 102.757 203.376 104.135 201.963C105.514 200.549 107.288 199.898 109.455 200.008C111.242 200.099 112.71 200.695 113.858 201.796C115.007 202.897 115.66 204.347 115.818 206.147L114.346 206.072C114.167 204.682 113.659 203.555 112.822 202.69C111.984 201.825 110.855 201.357 109.435 201.285C107.75 201.199 106.365 201.723 105.279 202.858C104.179 203.991 103.542 205.552 103.367 207.541L111.673 207.963L111.609 209.215L103.348 208.795C103.417 210.62 103.943 212.101 104.928 213.237C105.898 214.388 107.181 215.004 108.778 215.085C110.052 215.15 111.153 214.861 112.082 214.218C113.01 213.589 113.62 212.702 113.913 211.557L115.407 211.633C115.154 213.147 114.382 214.334 113.09 215.194C111.782 216.067 110.338 216.464 108.756 216.384C106.485 216.268 104.746 215.387 103.537 213.739C102.314 212.091 101.761 210.11 101.879 207.796Z" fill="#B18D60"/>
<path d="M79.6927 211.319L88.1548 206.931L83.3503 196.084L85.2009 196.572L89.4341 206.222L93.0233 204.348L94.4327 199.009L95.8579 199.385L91.8599 214.531L90.4348 214.154L92.5853 206.008L81.6071 211.824L79.6927 211.319Z" fill="#B18D60"/>
<path d="M64.5299 194.317C65.5413 192.658 66.8573 191.587 68.4778 191.103C70.0786 190.625 71.7182 190.807 73.3967 191.648C75.3374 192.62 76.5595 194.061 77.063 195.97C77.5666 197.879 77.2632 199.942 76.1529 202.158C75.1149 204.23 73.6641 205.685 71.8007 206.523C69.9241 207.354 67.9695 207.261 65.937 206.243C64.5208 205.533 63.4656 204.479 62.7715 203.082C62.0577 201.691 61.9637 200.274 62.4896 198.831L63.8271 199.501C63.5179 200.642 63.6122 201.715 64.1099 202.719C64.601 203.736 65.4169 204.53 66.5578 205.102C68.1051 205.877 69.6432 205.934 71.172 205.273C72.6811 204.618 73.9021 203.36 74.835 201.498C75.7679 199.636 76.0514 197.908 75.6854 196.313C75.2996 194.726 74.3331 193.544 72.7858 192.769C71.4352 192.092 70.153 191.967 68.9392 192.392C67.7188 192.831 66.6883 193.692 65.8477 194.977L64.5299 194.317Z" fill="#B18D60"/>
<path d="M42.4223 190.519L52.2608 178.331L53.4249 179.27L44.3878 190.466L51.6633 196.339L60.7004 185.143L61.8645 186.083L52.026 198.271L42.4223 190.519Z" fill="#B18D60"/>
<path d="M29.9011 178.245C28.5402 176.535 28.0319 174.671 28.3759 172.654C28.7109 170.626 29.8366 168.849 31.753 167.324C33.658 165.807 35.6262 165.113 37.6576 165.239C39.6775 165.375 41.3771 166.309 42.7562 168.042C44.1262 169.763 44.6403 171.622 44.2986 173.619C43.9569 175.615 42.8278 177.376 40.9113 178.901C38.9949 180.427 37.0255 181.132 35.0032 181.017C32.9718 180.89 31.2711 179.966 29.9011 178.245ZM30.9304 177.454C32.0173 178.819 33.3921 179.534 35.0549 179.598C36.7085 179.65 38.3387 179.037 39.9453 177.758C41.5863 176.452 42.5727 174.983 42.9043 173.351C43.2245 171.727 42.832 170.222 41.7269 168.833C40.6218 167.444 39.2424 166.724 37.5887 166.672C35.9259 166.608 34.2855 167.22 32.6674 168.508C31.0493 169.796 30.079 171.261 29.7565 172.905C29.434 174.549 29.8253 176.065 30.9304 177.454Z" fill="#B18D60"/>
<path d="M20.0831 152.664C19.0921 152.238 18.3955 151.522 17.9933 150.514C17.5911 149.505 17.6029 148.506 18.0286 147.515C18.4543 146.524 19.1712 145.827 20.1793 145.425C21.1874 145.023 22.1869 145.035 23.1779 145.46C24.1689 145.886 24.8655 146.603 25.2677 147.611C25.6699 148.619 25.6581 149.619 25.2324 150.61C24.8066 151.601 24.0897 152.297 23.0817 152.7C22.0736 153.102 21.0741 153.09 20.0831 152.664Z" fill="#B18D60"/>
<path d="M123.306 64.5626L115.062 76.8026L124.062 90.1946H117.33L111.714 81.3026L106.026 90.1946H99.6181L108.654 76.8026L100.302 64.5626H106.854L111.966 72.8066L117.114 64.5626H123.306Z" fill="#B18D60"/>
<path d="M76.4019 116.492C76.4019 117.591 75.9753 118.492 75.1219 119.196C74.2686 119.9 73.2019 120.252 71.9219 120.252C70.3753 120.252 69.1646 119.9 68.2899 119.196C67.4259 118.481 66.9886 117.479 66.9779 116.188H69.4579C69.4793 116.913 69.7139 117.452 70.1619 117.804C70.6099 118.156 71.1966 118.332 71.9219 118.332C72.4979 118.332 72.9673 118.161 73.3299 117.82C73.7033 117.468 73.8899 117.031 73.8899 116.508C73.8899 115.441 73.1753 114.908 71.7459 114.908H70.8819V113.212C71.0099 113.223 71.2339 113.228 71.5539 113.228C72.9299 113.228 73.6179 112.711 73.6179 111.676C73.6179 111.239 73.4633 110.903 73.1539 110.668C72.8446 110.423 72.4286 110.3 71.9059 110.3C71.2873 110.3 70.7913 110.449 70.4179 110.748C70.0446 111.036 69.8366 111.452 69.7939 111.996H67.4259C67.4473 110.791 67.8793 109.884 68.7219 109.276C69.5646 108.668 70.6313 108.364 71.9219 108.364C73.0953 108.364 74.0606 108.657 74.8179 109.244C75.5859 109.82 75.9699 110.577 75.9699 111.516C75.9699 112.081 75.8099 112.577 75.4899 113.004C75.1699 113.42 74.7539 113.687 74.2419 113.804C74.8713 113.9 75.3886 114.193 75.7939 114.684C76.1993 115.175 76.4019 115.777 76.4019 116.492ZM85.2086 108.332C86.8726 108.332 88.2166 108.887 89.2406 109.996C90.2752 111.095 90.7926 112.535 90.7926 114.316C90.7926 116.097 90.2752 117.537 89.2406 118.636C88.2166 119.724 86.8672 120.268 85.1926 120.268C83.5072 120.268 82.1472 119.724 81.1126 118.636C80.0779 117.537 79.5606 116.097 79.5606 114.316C79.5606 112.513 80.0726 111.068 81.0966 109.98C82.1312 108.881 83.5019 108.332 85.2086 108.332ZM85.1766 110.38C84.2379 110.38 83.4859 110.732 82.9206 111.436C82.3659 112.14 82.0886 113.084 82.0886 114.268C82.0886 115.495 82.3659 116.455 82.9206 117.148C83.4752 117.841 84.2379 118.193 85.2086 118.204C86.1579 118.204 86.9046 117.852 87.4486 117.148C87.9926 116.444 88.2646 115.484 88.2646 114.268C88.2646 113.073 87.9872 112.129 87.4326 111.436C86.8779 110.732 86.1259 110.38 85.1766 110.38ZM103.4 108.604V119.996H100.904V110.732H97.8478L97.6878 115.564C97.5811 118.668 96.5251 120.22 94.5198 120.22C93.9651 120.22 93.4958 120.156 93.1118 120.028V118.012C93.3678 118.14 93.6611 118.204 93.9918 118.204C94.3865 118.204 94.6905 118.028 94.9038 117.676C95.1171 117.313 95.2398 116.599 95.2718 115.532L95.4638 108.604H103.4ZM112.627 108.332C114.291 108.332 115.635 108.887 116.659 109.996C117.693 111.095 118.211 112.535 118.211 114.316C118.211 116.097 117.693 117.537 116.659 118.636C115.635 119.724 114.285 120.268 112.611 120.268C110.925 120.268 109.565 119.724 108.531 118.636C107.496 117.537 106.979 116.097 106.979 114.316C106.979 112.513 107.491 111.068 108.515 109.98C109.549 108.881 110.92 108.332 112.627 108.332ZM112.595 110.38C111.656 110.38 110.904 110.732 110.339 111.436C109.784 112.14 109.507 113.084 109.507 114.268C109.507 115.495 109.784 116.455 110.339 117.148C110.893 117.841 111.656 118.193 112.627 118.204C113.576 118.204 114.323 117.852 114.867 117.148C115.411 116.444 115.683 115.484 115.683 114.268C115.683 113.073 115.405 112.129 114.851 111.436C114.296 110.732 113.544 110.38 112.595 110.38ZM130.031 108.604V110.732H126.607V119.996H124.095V110.732H120.671V108.604H130.031ZM141.876 116.332C141.876 117.548 141.497 118.465 140.74 119.084C139.993 119.692 138.98 119.996 137.7 119.996H133.268V108.604H135.748V112.7H137.828C139.033 112.7 140.009 113.009 140.756 113.628C141.502 114.236 141.876 115.137 141.876 116.332ZM139.444 116.3C139.444 115.212 138.793 114.668 137.492 114.668H135.748V117.948H137.508C138.798 117.948 139.444 117.399 139.444 116.3ZM143.092 108.604H145.588V119.996H143.092V108.604ZM159.015 108.604L155.351 114.044L159.351 119.996H156.359L153.863 116.044L151.335 119.996H148.487L152.503 114.044L148.791 108.604H151.703L153.975 112.268L156.263 108.604H159.015ZM67.2616 140.996V129.604H70.8296L73.4856 137.428L76.0776 129.604H79.5656V140.996H77.2136V132.9L74.4136 140.996H72.4776L69.6456 132.98V140.996H67.2616ZM92.2412 129.604V131.652H86.1772V134.132H91.7452V136.1H86.1772V138.9H92.3532V140.996H83.6972V129.604H92.2412ZM107.08 143.924H104.664V140.996H97.4322V143.924H95.0162V138.868H95.8802C96.5309 137.993 96.9949 136.953 97.2722 135.748C97.5602 134.532 97.7042 133.06 97.7042 131.332V129.604H105.816V138.868H107.08V143.924ZM103.32 138.868V131.636H100.184V131.828C100.184 134.676 99.6775 137.023 98.6642 138.868H103.32ZM116.029 129.588L120.365 140.996H117.741L116.845 138.452H112.605L111.677 140.996H109.117L113.453 129.588H116.029ZM116.237 136.628L114.733 132.388L113.213 136.628H116.237ZM132.63 129.604V140.996H130.134V131.732H127.078L126.918 136.564C126.812 139.668 125.756 141.22 123.75 141.22C123.196 141.22 122.726 141.156 122.342 141.028V139.012C122.598 139.14 122.892 139.204 123.222 139.204C123.617 139.204 123.921 139.028 124.134 138.676C124.348 138.313 124.47 137.599 124.502 136.532L124.694 129.604H132.63ZM145.249 129.604V131.652H139.185V134.132H144.753V136.1H139.185V138.9H145.361V140.996H136.705V129.604H145.249ZM158.648 129.604V140.996H156.152V133.092H156.104L151.816 140.996H149V129.604H151.496V137.492H151.544L155.832 129.604H158.648ZM155.544 126.532H156.44C156.44 128.068 155.571 128.836 153.832 128.836C152.094 128.836 151.224 128.068 151.224 126.532H152.12C152.259 127.236 152.83 127.588 153.832 127.588C154.835 127.588 155.406 127.236 155.544 126.532ZM100.743 160.028V161.996H92.5354C92.546 161.495 92.61 161.036 92.7274 160.62C92.8554 160.193 92.9994 159.836 93.1594 159.548C93.33 159.26 93.586 158.956 93.9274 158.636C94.2687 158.316 94.5674 158.06 94.8234 157.868C95.09 157.676 95.474 157.409 95.9754 157.068C96.0394 157.025 96.21 156.913 96.4874 156.732C96.7647 156.551 96.9567 156.423 97.0634 156.348C97.17 156.273 97.33 156.145 97.5434 155.964C97.7567 155.772 97.906 155.607 97.9914 155.468C98.0874 155.329 98.178 155.159 98.2634 154.956C98.3487 154.743 98.3914 154.524 98.3914 154.3C98.3914 153.809 98.242 153.42 97.9434 153.132C97.6554 152.833 97.2714 152.684 96.7914 152.684C95.6394 152.684 95.0314 153.495 94.9674 155.116H92.7914V154.876C92.7914 153.607 93.1594 152.599 93.8954 151.852C94.6314 151.095 95.6234 150.716 96.8714 150.716C98.002 150.716 98.9194 151.036 99.6234 151.676C100.327 152.305 100.679 153.127 100.679 154.14C100.679 154.961 100.493 155.617 100.119 156.108C99.746 156.599 99.1594 157.116 98.3594 157.66C98.2527 157.735 98.0554 157.868 97.7674 158.06C97.4794 158.241 97.25 158.391 97.0794 158.508C96.9194 158.625 96.722 158.775 96.4874 158.956C96.2527 159.137 96.05 159.319 95.8794 159.5C95.7087 159.671 95.5647 159.847 95.4474 160.028H100.743ZM107.57 150.732C108.189 150.732 108.738 150.849 109.218 151.084C109.709 151.319 110.103 151.623 110.402 151.996C110.701 152.369 110.946 152.812 111.138 153.324C111.341 153.836 111.479 154.348 111.554 154.86C111.629 155.372 111.666 155.911 111.666 156.476C111.666 158.257 111.303 159.655 110.578 160.668C109.853 161.681 108.855 162.188 107.586 162.188C106.285 162.188 105.266 161.687 104.53 160.684C103.805 159.671 103.442 158.268 103.442 156.476C103.442 155.761 103.511 155.089 103.65 154.46C103.789 153.82 104.007 153.212 104.306 152.636C104.605 152.049 105.031 151.585 105.586 151.244C106.151 150.903 106.813 150.732 107.57 150.732ZM107.554 152.604C107.255 152.604 106.994 152.668 106.77 152.796C106.546 152.924 106.365 153.116 106.226 153.372C106.098 153.617 105.991 153.857 105.906 154.092C105.831 154.316 105.778 154.615 105.746 154.988C105.714 155.351 105.693 155.628 105.682 155.82C105.682 156.012 105.682 156.268 105.682 156.588C105.682 159.095 106.311 160.348 107.57 160.348C108.807 160.348 109.426 159.057 109.426 156.476C109.426 155.143 109.277 154.167 108.978 153.548C108.679 152.919 108.205 152.604 107.554 152.604ZM122.365 160.028V161.996H114.157C114.167 161.495 114.231 161.036 114.349 160.62C114.477 160.193 114.621 159.836 114.781 159.548C114.951 159.26 115.207 158.956 115.549 158.636C115.89 158.316 116.189 158.06 116.445 157.868C116.711 157.676 117.095 157.409 117.597 157.068C117.661 157.025 117.831 156.913 118.109 156.732C118.386 156.551 118.578 156.423 118.685 156.348C118.791 156.273 118.951 156.145 119.165 155.964C119.378 155.772 119.527 155.607 119.613 155.468C119.709 155.329 119.799 155.159 119.885 154.956C119.97 154.743 120.013 154.524 120.013 154.3C120.013 153.809 119.863 153.42 119.565 153.132C119.277 152.833 118.893 152.684 118.413 152.684C117.261 152.684 116.653 153.495 116.589 155.116H114.413V154.876C114.413 153.607 114.781 152.599 115.517 151.852C116.253 151.095 117.245 150.716 118.493 150.716C119.623 150.716 120.541 151.036 121.245 151.676C121.949 152.305 122.301 153.127 122.301 154.14C122.301 154.961 122.114 155.617 121.741 156.108C121.367 156.599 120.781 157.116 119.981 157.66C119.874 157.735 119.677 157.868 119.389 158.06C119.101 158.241 118.871 158.391 118.701 158.508C118.541 158.625 118.343 158.775 118.109 158.956C117.874 159.137 117.671 159.319 117.501 159.5C117.33 159.671 117.186 159.847 117.069 160.028H122.365ZM131.063 150.796V161.996H128.647V154.716H125.927V153.036H126.215C127.911 153.036 128.903 152.289 129.191 150.796H131.063Z" fill="#B18D60"/>
</svg>
