<svg width="23" height="14" viewBox="0 0 23 14" fill="none" xmlns="http://www.w3.org/2000/svg">
<path d="M22.3216 0.971292C22.221 1.4067 21.8858 2.07656 21.3161 3.18182C20.8804 3.95215 20.3106 4.72249 19.7743 5.72727C19.2381 6.49761 19.0035 6.83254 19.0035 6.93301C18.7689 7.16746 18.7689 7.36842 18.7689 7.4689C18.7689 7.56938 18.8694 7.80383 19.0035 8.00479L19.4392 8.44019C21.5507 10.5837 22.6567 12.1244 22.9584 12.8947C23.0589 13.2297 22.9584 13.5646 22.8578 13.6651C22.7573 13.7656 22.4221 14 22.0869 14H19.5397C19.2046 14 19.0035 13.8995 18.6683 13.6651C18.4337 13.5646 18.2326 13.2297 17.7969 12.7943C17.3612 12.2584 16.9255 11.9234 16.5903 11.4545C15.4843 10.3493 14.6129 9.8134 14.0431 9.8134C13.8085 9.8134 13.6074 9.8134 13.6074 9.91388C13.6074 10.0144 13.4734 10.1148 13.4734 10.4498C13.4734 10.6842 13.4734 11.1196 13.4734 11.7895V12.8947C13.4734 13.2297 13.3728 13.4306 13.2388 13.6651C13.0041 13.8995 12.4679 13.8995 11.697 13.8995C10.3564 13.8995 8.94873 13.4641 7.6081 12.6938C6.26746 11.9234 5.06089 10.7177 3.95487 9.27751C2.94939 7.9378 2.17853 6.63158 1.54173 5.29187C1.00548 4.28708 0.670317 3.31579 0.335158 2.41148C0.100548 1.64115 0 1.20574 0 0.870814C0 0.435407 0.335159 0.100478 0.871412 0.100478H3.41862C3.75377 0.100478 3.95487 0.200957 4.08893 0.334928C4.18948 0.435407 4.42409 0.770335 4.52464 1.10526C4.96034 2.21053 5.39605 3.41627 5.96582 4.42105C6.50207 5.42584 6.9713 6.29665 7.50755 6.83254C8.0438 7.50239 8.37896 7.83732 8.71412 7.83732C8.94873 7.83732 9.04928 7.73684 9.04928 7.60287C9.14983 7.50239 9.14983 7.26794 9.14983 6.83254V3.08134C9.14983 2.64593 9.04928 2.21053 8.81467 1.8756C8.71412 1.64115 8.58006 1.44019 8.37896 1.20574C8.14435 0.971293 8.0438 0.770335 8.0438 0.669856C8.0438 0.569378 8.14435 0.334929 8.27841 0.23445C8.37896 0.133972 8.61357 0 8.71412 0H12.3673C12.602 0 12.8031 0.100479 12.9036 0.23445C13.0041 0.334929 13.0041 0.669856 13.0041 1.00478V6.09569C13.0041 6.33014 13.0041 6.5311 13.1047 6.63158C13.2052 6.73206 13.3393 6.86603 13.4399 6.86603C13.5404 6.86603 13.775 6.86603 13.8756 6.76555C14.1102 6.66507 14.3113 6.43062 14.5459 6.09569C15.0821 5.55981 15.6519 4.75598 16.1882 3.88517C16.5233 3.21531 16.959 2.54545 17.2942 1.77512L17.7299 0.904307C17.9645 0.4689 18.2661 0.133972 18.8359 0.133972H21.3831C22.1875 0.100479 22.4221 0.435407 22.3216 0.971292Z" fill="currentColor"/>
</svg>
