<svg width="1920" height="800" viewBox="0 0 1920 800" fill="none" xmlns="http://www.w3.org/2000/svg">
<mask id="mask0_243_60" style="mask-type:alpha" maskUnits="userSpaceOnUse" x="0" y="0" width="1920" height="800">
<path d="M0 0H1920V800H0V0Z" fill="#101010"/>
</mask>
<g mask="url(#mask0_243_60)">
<path d="M1671.71 -74.8028C1671.8 -66.6798 1671.71 -58.1293 1671.28 -48.8092C1666.93 62.3478 1663.72 123.997 1670.23 261.917C1683.09 533.996 1699.34 642.502 1710.46 670.462C1711.24 672.514 1712.2 674.224 1713.15 675.935C1735.31 630.275 1781.1 510.14 1812.55 398.641C1856.52 242.85 1867.29 167.092 1867.38 77.4823C1867.38 77.4823 1870.5 72.7795 1879.28 63.6304C1883.1 59.6972 1886.32 56.8755 1889.36 54.9089C1889.36 54.9089 1893.53 51.1466 1901.87 49.6931C1912.56 47.8119 1922.9 49.522 1933.67 53.7973C1939.58 56.1915 1945.66 59.7827 1951.22 63.1174C1997.1 90.5646 1999.96 116.729 2002.83 181.029C2008.65 308.603 2005 366.234 2012.91 508.258C2017.08 582.905 2022.21 637.457 2027.16 678.671C2152.27 464.138 2247.07 240.541 2313.01 12.8402C2106.83 -38.121 1892.31 -68.1334 1671.8 -74.9738L1671.71 -74.8028Z" fill="white"/>
<path d="M1917.25 758.618C1908.65 733.993 1899.7 694.746 1889.97 547.505C1886.84 500.734 1884.93 452.594 1883.71 407.79C1876.67 436.348 1868.42 466.19 1858.51 494.834C1785.01 706.802 1735.14 784.868 1735.14 784.868C1735.14 784.868 1730.27 786.921 1723.93 788.118C1719.06 789.315 1710.9 790.255 1696.82 789.742C1685.7 789.4 1669.89 786.579 1661.2 783.158C1637.82 773.924 1621.84 762.039 1607.33 742.116C1597.77 728.948 1586.91 709.88 1580.65 670.291C1570.05 603.426 1561.54 534.423 1553.46 415.998C1550.85 377.35 1549.03 342.72 1547.9 311.853C1526.78 393.681 1499.07 484.83 1464.92 566.231C1402.89 714.241 1313.91 843.696 1263.43 894.315C1358.4 1029.24 1463.1 1154.25 1576.14 1269C1713.68 1129.28 1838.97 974.519 1949.31 805.133C1934.28 791.538 1923.5 776.403 1917.34 758.533L1917.25 758.618Z" fill="white"/>
<path d="M1123.38 565.376C1136.15 554.431 1164.21 551.439 1189.76 561.443C1192.02 562.298 1194.36 563.238 1196.71 564.435C1196.8 564.435 1196.97 564.521 1197.06 564.606C1197.4 564.777 1197.58 564.863 1197.84 565.034C1199.75 565.974 1201.57 566.83 1203.57 567.941C1214.69 574.354 1223.03 578.886 1233.63 586.923C1237.54 589.916 1239.8 594.191 1240.5 597.782C1241.45 602.229 1240.5 606.59 1240.5 606.59C1229.12 608.3 1224.25 624.631 1223.3 645.751C1221.47 682.86 1225.38 706.032 1228.33 720.825C1233.37 746.476 1243.71 769.905 1248.93 777.942C1252.92 784.099 1256.75 788.63 1260.13 792.136C1289.42 754.257 1319.83 707.828 1372.83 597.868C1406.1 528.78 1434.43 450.371 1460.75 361.018C1519.92 159.567 1537.13 28.6586 1540.34 -76C1298.71 -73.2638 1063.86 -42.5674 839 13.0111C900.254 224.551 986.445 432.501 1098.7 633.096C1100.61 598.552 1106 579.997 1123.12 565.376H1123.38Z" fill="white"/>
</g>
</svg>
