<svg width="1027" height="1345" viewBox="0 0 1027 1345" fill="none" xmlns="http://www.w3.org/2000/svg">
<path d="M832.709 1.1972C832.796 9.32021 832.709 17.8707 832.274 27.1908C827.93 138.348 824.715 199.997 831.232 337.917C844.091 609.996 860.339 718.502 871.46 746.462C872.242 748.514 873.198 750.224 874.153 751.935C896.309 706.275 942.098 586.14 973.551 474.641C1017.51 318.85 1028.29 243.092 1028.38 153.482C1028.38 153.482 1031.5 148.779 1040.28 139.63C1044.1 135.697 1047.32 132.875 1050.36 130.909C1050.36 130.909 1054.53 127.147 1062.87 125.693C1073.56 123.812 1083.9 125.522 1094.67 129.797C1100.58 132.191 1106.66 135.783 1112.22 139.117C1158.1 166.565 1160.96 192.729 1163.83 257.029C1169.65 384.603 1166 442.234 1173.91 584.258C1178.08 658.905 1183.21 713.457 1188.16 754.671C1313.27 540.138 1408.07 316.541 1474.01 88.8402C1267.83 37.879 1053.31 7.86662 832.796 1.02618L832.709 1.1972Z" fill="white"/>
<path d="M1078.25 834.618C1069.65 809.993 1060.7 770.746 1050.97 623.505C1047.84 576.734 1045.93 528.594 1044.71 483.79C1037.67 512.348 1029.42 542.19 1019.51 570.834C946.008 782.802 896.136 860.868 896.136 860.868C896.136 860.868 891.27 862.921 884.928 864.118C880.062 865.315 871.895 866.255 857.819 865.742C846.698 865.4 830.885 862.579 822.196 859.158C798.824 849.924 782.837 838.038 768.327 818.116C758.77 804.948 747.909 785.88 741.653 746.291C731.053 679.426 722.538 610.423 714.458 491.998C711.851 453.35 710.027 418.72 708.897 387.852C687.784 469.681 660.068 560.83 625.921 642.231C563.885 790.241 474.914 919.696 424.434 970.315C519.4 1105.24 624.097 1230.25 737.135 1345C874.675 1205.28 999.964 1050.52 1110.31 881.133C1095.28 867.538 1084.5 852.403 1078.34 834.533L1078.25 834.618Z" fill="white"/>
<path d="M284.377 641.376C297.149 630.431 325.213 627.439 350.757 637.443C353.016 638.298 355.362 639.238 357.708 640.435C357.795 640.435 357.969 640.521 358.056 640.606C358.403 640.777 358.577 640.863 358.838 641.034C360.749 641.974 362.574 642.83 364.572 643.941C375.694 650.354 384.034 654.886 394.635 662.923C398.544 665.916 400.803 670.191 401.499 673.783C402.454 678.229 401.499 682.59 401.499 682.59C390.117 684.3 385.251 700.631 384.295 721.751C382.471 758.86 386.381 782.032 389.335 796.825C394.374 822.476 404.713 845.905 409.926 853.942C413.923 860.099 417.746 864.63 421.135 868.136C450.415 830.257 480.825 783.828 533.826 673.868C567.103 604.78 595.427 526.371 621.754 437.018C680.923 235.567 698.126 104.659 701.341 0C459.712 2.73617 224.86 33.4326 0 89.0111C61.2544 300.551 147.445 508.501 259.701 709.096C261.613 674.552 266.999 655.997 284.116 641.376H284.377Z" fill="white"/>
</svg>
