<svg width="79" height="79" viewBox="0 0 79 79" fill="none" xmlns="http://www.w3.org/2000/svg">
<g clip-path="url(#clip0_96_634)">
<path d="M71.4025 51.956V43.856H63.2305V42.668H71.4025V34.604H72.6625V42.668H80.8345V43.856H72.6625V51.956H71.4025Z" fill="black"/>
<path d="M51.2168 27.8C52.5848 27.8 53.8088 28.064 54.8888 28.592C55.9688 29.12 56.8328 29.804 57.4808 30.644C58.1288 31.484 58.6688 32.48 59.1008 33.632C59.5328 34.784 59.8208 35.9361 59.9648 37.088C60.1328 38.2161 60.2168 39.404 60.2168 40.652C60.2168 42.26 60.0728 43.772 59.7848 45.188C59.5208 46.58 59.0648 47.9361 58.4168 49.2561C57.7688 50.576 56.8208 51.6201 55.5728 52.3881C54.3488 53.156 52.8728 53.5401 51.1448 53.5401C48.2648 53.5401 46.0568 52.4721 44.5208 50.3361C42.9848 48.1761 42.2168 45.0801 42.2168 41.0481C42.2168 39.4401 42.3488 37.9281 42.6128 36.512C42.9008 35.0721 43.3568 33.668 43.9808 32.3C44.6048 30.932 45.5288 29.8401 46.7528 29.0241C48.0008 28.208 49.4888 27.8 51.2168 27.8ZM51.2168 29.168C48.8408 29.168 46.9928 30.224 45.6728 32.3361C44.3528 34.4241 43.6928 37.352 43.6928 41.12C43.6928 42.176 43.7528 43.1841 43.8728 44.1441C43.9928 45.104 44.2208 46.1 44.5568 47.132C44.8928 48.14 45.3248 49.0161 45.8528 49.7601C46.4048 50.4801 47.1248 51.0801 48.0128 51.5601C48.9248 52.0161 49.9688 52.244 51.1448 52.244C52.6088 52.244 53.8688 51.8841 54.9248 51.1641C55.9808 50.4441 56.7608 49.4841 57.2648 48.284C57.7928 47.0601 58.1648 45.836 58.3808 44.612C58.5968 43.364 58.7048 42.056 58.7048 40.6881C58.7048 39.3201 58.5968 38.024 58.3808 36.8C58.1888 35.576 57.8288 34.364 57.3008 33.1641C56.7968 31.94 56.0168 30.968 54.9608 30.248C53.9288 29.528 52.6808 29.168 51.2168 29.168Z" fill="black"/>
<path d="M31.2129 27.8C32.5809 27.8 33.8049 28.064 34.8849 28.592C35.9649 29.12 36.8289 29.804 37.4769 30.644C38.1249 31.484 38.6649 32.48 39.0969 33.632C39.5289 34.784 39.8169 35.9361 39.9609 37.088C40.1289 38.2161 40.2129 39.404 40.2129 40.652C40.2129 42.26 40.0689 43.772 39.7809 45.188C39.5169 46.58 39.0609 47.9361 38.4129 49.2561C37.7649 50.576 36.8169 51.6201 35.5689 52.3881C34.3449 53.156 32.8689 53.5401 31.1409 53.5401C28.2609 53.5401 26.0529 52.4721 24.5169 50.3361C22.9809 48.1761 22.2129 45.0801 22.2129 41.0481C22.2129 39.4401 22.3449 37.9281 22.6089 36.512C22.8969 35.0721 23.3529 33.668 23.9769 32.3C24.6009 30.932 25.5249 29.8401 26.7489 29.0241C27.9969 28.208 29.4849 27.8 31.2129 27.8ZM31.2129 29.168C28.8369 29.168 26.9889 30.224 25.6689 32.3361C24.3489 34.4241 23.6889 37.352 23.6889 41.12C23.6889 42.176 23.7489 43.1841 23.8689 44.1441C23.9889 45.104 24.2169 46.1 24.5529 47.132C24.8889 48.14 25.3209 49.0161 25.8489 49.7601C26.4009 50.4801 27.1209 51.0801 28.0089 51.5601C28.9209 52.0161 29.9649 52.244 31.1409 52.244C32.6049 52.244 33.8649 51.8841 34.9209 51.1641C35.9769 50.4441 36.7569 49.4841 37.2609 48.284C37.7889 47.0601 38.1609 45.836 38.3769 44.612C38.5929 43.364 38.7009 42.056 38.7009 40.6881C38.7009 39.3201 38.5929 38.024 38.3769 36.8C38.1849 35.576 37.8249 34.364 37.2969 33.1641C36.7929 31.94 36.0129 30.968 34.9569 30.248C33.9249 29.528 32.6769 29.168 31.2129 29.168Z" fill="black"/>
<path d="M13.1898 28.2321V53.0001H11.6778V30.8961C10.6458 31.9281 9.64984 32.6721 8.68984 33.1281C7.72984 33.5841 6.52984 33.8961 5.08984 34.0641V32.8401C6.74584 32.4801 8.02984 32.0001 8.94184 31.4001C9.87784 30.7761 10.8618 29.7201 11.8938 28.2321H13.1898Z" fill="black"/>
</g>
<defs>
<clipPath id="clip0_96_634">
<rect width="79" height="79" fill="white"/>
</clipPath>
</defs>
</svg>
