<svg width="79" height="79" viewBox="0 0 79 79" fill="none" xmlns="http://www.w3.org/2000/svg">
<path d="M42.3185 29.3911C42.138 29.6001 42.1611 29.9158 42.3701 30.0963C42.5791 30.2768 42.8948 30.2536 43.0753 30.0446L42.3185 29.3911ZM61.5211 7.91926L61.1427 7.59247L61.5211 7.91926ZM74.5764 19.6685L74.9379 20.0139L74.5764 19.6685ZM74.1006 7.13119L74.4351 6.75952L74.1006 7.13119ZM33.5187 16.8771H33.0187V17.3533L33.4943 17.3765L33.5187 16.8771ZM49.1751 4.11364L49.6677 4.028L49.6053 3.66919L49.2447 3.61851L49.1751 4.11364ZM27.0296 26.1042L27.0555 26.6036L27.5296 26.579V26.1042H27.0296ZM12.2941 13.3408L12.2203 12.8462L11.8596 12.9001L11.8007 13.26L12.2941 13.3408ZM74.7346 29.7098C74.7346 50.8639 58.538 67.9637 38.6173 67.9637V68.9637C59.143 68.9637 75.7346 51.362 75.7346 29.7098H74.7346ZM38.6173 67.9637C18.6966 67.9637 2.5 50.8639 2.5 29.7098H1.5C1.5 51.362 18.0916 68.9637 38.6173 68.9637V67.9637ZM2 30.6711H75.2346V29.6711H2V30.6711ZM4.78106 44.5118H72.4535V43.5118H4.78106V44.5118ZM11.2702 55.5844H65.9644V54.5844H11.2702V55.5844ZM49.7051 66.6183V70.3092H50.7051V66.6183H49.7051ZM46.497 73.5H30.7376V74.5H46.497V73.5ZM27.5296 70.3092V66.6183H26.5296V70.3092H27.5296ZM30.7376 73.5C28.9637 73.5 27.5296 72.0692 27.5296 70.3092H26.5296C26.5296 72.6259 28.4158 74.5 30.7376 74.5V73.5ZM49.7051 70.3092C49.7051 72.0692 48.271 73.5 46.497 73.5V74.5C48.8188 74.5 50.7051 72.6259 50.7051 70.3092H49.7051ZM43.0753 30.0446L61.8995 8.24605L61.1427 7.59247L42.3185 29.3911L43.0753 30.0446ZM74.2149 19.3231L64.6147 29.3725L65.3378 30.0632L74.9379 20.0139L74.2149 19.3231ZM73.7662 7.50285C77.2273 10.6176 77.4298 15.9577 74.2149 19.3231L74.9379 20.0139C78.5427 16.2405 78.3152 10.2512 74.4351 6.75952L73.7662 7.50285ZM74.4351 6.75952C70.5566 3.26926 64.5514 3.64516 61.1427 7.59247L61.8995 8.24605C64.9417 4.72323 70.3037 4.387 73.7662 7.50285L74.4351 6.75952ZM34.0187 16.8771C34.0187 13.2274 34.9715 10.672 36.3605 8.87583C37.7527 7.07561 39.6161 5.99548 41.5067 5.35771C43.3996 4.71917 45.3018 4.53049 46.7382 4.50355C47.4546 4.49012 48.0509 4.51699 48.4663 4.54702C48.6739 4.56202 48.8361 4.57779 48.9452 4.58965C48.9998 4.59558 49.0411 4.60053 49.0681 4.60392C49.0816 4.60561 49.0916 4.60691 49.0978 4.60774C49.101 4.60816 49.1032 4.60846 49.1045 4.60863C49.1051 4.60872 49.1055 4.60878 49.1057 4.6088C49.1058 4.60881 49.1057 4.60881 49.1058 4.60881C49.1057 4.6088 49.1055 4.60877 49.1751 4.11364C49.2447 3.61851 49.2444 3.61846 49.244 3.61842C49.2438 3.61839 49.2434 3.61833 49.2431 3.61828C49.2423 3.61817 49.2413 3.61803 49.24 3.61786C49.2375 3.61751 49.234 3.61705 49.2296 3.61646C49.2209 3.6153 49.2084 3.61367 49.1923 3.61165C49.16 3.60762 49.1134 3.60204 49.0533 3.59551C48.9331 3.58244 48.7589 3.56555 48.5384 3.54962C48.0976 3.51776 47.4707 3.48964 46.7194 3.50373C45.2201 3.53185 43.2083 3.72831 41.1871 4.41017C39.1636 5.09278 37.1129 6.26829 35.5695 8.26408C34.0229 10.2639 33.0187 13.045 33.0187 16.8771H34.0187ZM49.1751 4.11364C48.6825 4.19928 48.6824 4.19903 48.6824 4.19883C48.6824 4.19883 48.6824 4.19867 48.6824 4.19868C48.6824 4.19868 48.6824 4.19889 48.6825 4.1993C48.6826 4.20012 48.6829 4.20175 48.6833 4.20418C48.6841 4.20904 48.6854 4.21709 48.6871 4.22823C48.6905 4.2505 48.6955 4.28509 48.7015 4.33115C48.7135 4.4233 48.7293 4.56117 48.7434 4.73797C48.7716 5.09186 48.7931 5.6 48.7646 6.20832C48.7074 7.42806 48.4503 9.03169 47.6609 10.6008C46.8754 12.1623 45.5566 13.7033 43.3473 14.8069C41.1314 15.9138 37.9902 16.5949 33.5431 16.3777L33.4943 17.3765C38.0614 17.5995 41.3844 16.9052 43.7942 15.7015C46.2107 14.4945 47.6792 12.7896 48.5542 11.0502C49.4254 9.31841 49.702 7.56611 49.7635 6.25514C49.7943 5.59811 49.7713 5.04721 49.7402 4.65838C49.7247 4.46383 49.7071 4.30944 49.6931 4.20215C49.6862 4.14849 49.6801 4.10658 49.6756 4.07728C49.6734 4.06262 49.6715 4.05112 49.6702 4.04287C49.6695 4.03874 49.669 4.03543 49.6685 4.03295C49.6683 4.03171 49.6682 4.03067 49.668 4.02985C49.6679 4.02943 49.6679 4.02897 49.6678 4.02876C49.6678 4.02835 49.6677 4.028 49.1751 4.11364ZM27.5296 26.1042C27.5296 22.2787 26.5865 19.502 25.1314 17.5028C23.6776 15.5055 21.7432 14.3259 19.8305 13.6404C17.9214 12.9561 16.0216 12.7591 14.6065 12.7309C13.8972 12.7167 13.3054 12.7449 12.889 12.7769C12.6807 12.7929 12.516 12.8099 12.4022 12.823C12.3453 12.8296 12.3011 12.8352 12.2705 12.8393C12.2552 12.8413 12.2433 12.843 12.2349 12.8441C12.2307 12.8447 12.2273 12.8452 12.2249 12.8456C12.2237 12.8457 12.2227 12.8459 12.2219 12.846C12.2215 12.8461 12.2211 12.8461 12.2209 12.8462C12.2206 12.8462 12.2203 12.8462 12.2941 13.3408C12.368 13.8353 12.3678 13.8353 12.3676 13.8353C12.3677 13.8353 12.3676 13.8353 12.3677 13.8353C12.3678 13.8353 12.3681 13.8353 12.3687 13.8352C12.3698 13.835 12.3719 13.8347 12.3747 13.8343C12.3805 13.8335 12.3897 13.8322 12.4023 13.8306C12.4274 13.8272 12.4659 13.8223 12.517 13.8164C12.619 13.8046 12.7709 13.7889 12.9656 13.774C13.355 13.7441 13.9144 13.7173 14.5866 13.7307C15.9344 13.7575 17.7184 13.9456 19.4931 14.5817C21.2643 15.2166 23.0137 16.2927 24.3229 18.0913C25.6307 19.8882 26.5296 22.4478 26.5296 26.1042H27.5296ZM12.2941 13.3408C11.8007 13.26 11.8006 13.2604 11.8006 13.2608C11.8005 13.261 11.8005 13.2614 11.8004 13.2618C11.8003 13.2626 11.8001 13.2636 11.7999 13.2648C11.7995 13.2673 11.799 13.2705 11.7984 13.2746C11.7971 13.2828 11.7954 13.2942 11.7933 13.3088C11.7891 13.3379 11.7834 13.3796 11.7769 13.433C11.7638 13.5399 11.7473 13.6938 11.7327 13.8878C11.7036 14.2756 11.682 14.8253 11.7109 15.4809C11.7686 16.7887 12.0283 18.5375 12.8469 20.2666C13.6691 22.003 15.0518 23.7116 17.3344 24.923C19.6113 26.1315 22.749 26.827 27.0555 26.6036L27.0036 25.6049C22.8261 25.8217 19.8799 25.1419 17.8032 24.0397C15.7321 22.9405 14.4915 21.4032 13.7508 19.8387C13.0066 18.2669 12.7639 16.6597 12.7099 15.4368C12.683 14.8271 12.7033 14.3177 12.7299 13.9628C12.7432 13.7855 12.7581 13.6471 12.7695 13.5545C12.7751 13.5083 12.7799 13.4735 12.7831 13.451C12.7848 13.4398 12.786 13.4316 12.7867 13.4267C12.7871 13.4242 12.7874 13.4225 12.7875 13.4217C12.7876 13.4212 12.7876 13.421 12.7876 13.421C12.7876 13.421 12.7876 13.4211 12.7876 13.4211C12.7876 13.4213 12.7876 13.4215 12.2941 13.3408Z" fill="black"/>
</svg>
