<svg width="79" height="79" viewBox="0 0 79 79" fill="none" xmlns="http://www.w3.org/2000/svg">
<path d="M76 56C76 36.67 60.1061 21 40.5 21C20.8939 21 5 36.67 5 56" stroke="black"/>
<path d="M43.5 17C43.5 18.9978 42.0962 20.5 40.5 20.5C38.9038 20.5 37.5 18.9978 37.5 17C37.5 15.0022 38.9038 13.5 40.5 13.5C42.0962 13.5 43.5 15.0022 43.5 17Z" stroke="black"/>
<path d="M2.5 57.4C2.5 56.9029 2.90294 56.5 3.4 56.5H76.6C77.0971 56.5 77.5 56.9029 77.5 57.4C77.5 60.2167 75.2167 62.5 72.4 62.5H7.6C4.78335 62.5 2.5 60.2167 2.5 57.4Z" stroke="black"/>
<path d="M7.5 63C7.5 62.7239 7.72386 62.5 8 62.5H72C72.2761 62.5 72.5 62.7239 72.5 63C72.5 64.933 70.933 66.5 69 66.5H11C9.067 66.5 7.5 64.933 7.5 63Z" stroke="black"/>
</svg>
