<svg width="79" height="79" viewBox="0 0 79 79" fill="none" xmlns="http://www.w3.org/2000/svg">
<g id="icn_5_3+">
<path id="Vector" d="M51.3966 51.956V43.856H43.2246V42.668H51.3966V34.604H52.6566V42.668H60.8286V43.856H52.6566V51.956H51.3966Z" fill="black"/>
<path id="Vector_2" d="M23.148 36.044C23.196 33.452 23.94 31.436 25.38 29.996C26.82 28.532 28.812 27.8 31.356 27.8C33.66 27.8 35.508 28.388 36.9 29.564C38.316 30.74 39.024 32.288 39.024 34.208C39.024 35.72 38.544 36.98 37.584 37.988C36.648 38.996 35.472 39.584 34.056 39.752C35.712 40.016 37.056 40.676 38.088 41.732C39.144 42.764 39.672 44.18 39.672 45.98C39.672 48.236 38.88 50.06 37.296 51.452C35.736 52.844 33.684 53.5401 31.14 53.5401C28.5 53.5401 26.4 52.8201 24.84 51.3801C23.28 49.9401 22.5 47.996 22.5 45.548V44.828H23.904V45.3321C23.904 47.4921 24.54 49.1841 25.812 50.4081C27.108 51.6321 28.896 52.244 31.176 52.244C33.24 52.244 34.92 51.6801 36.216 50.5521C37.536 49.4001 38.196 47.924 38.196 46.1241C38.196 42.3321 35.688 40.436 30.672 40.436H29.844V39.2121H30.852C32.988 39.2121 34.632 38.7921 35.784 37.9521C36.96 37.088 37.548 35.852 37.548 34.2441C37.548 32.6841 36.984 31.436 35.856 30.5001C34.728 29.564 33.216 29.096 31.32 29.096C29.184 29.096 27.528 29.696 26.352 30.896C25.176 32.0721 24.552 33.788 24.48 36.044H23.148Z" fill="black"/>
</g>
</svg>
