<svg width="79" height="79" viewBox="0 0 79 79" fill="none" xmlns="http://www.w3.org/2000/svg">
<g id="icn_garantee">
<circle id="Ellipse 28" cx="40.5" cy="29.5" r="19" stroke="black"/>
<path id="Vector 9" d="M33 28.5714L39.6667 36L49 23" stroke="black"/>
<path id="Star 1" d="M35.5256 4.21277C38.4946 2.06657 42.5054 2.06657 45.4744 4.21277C47.0419 5.34581 48.9222 5.97289 50.8554 6.0103C54.4676 6.08021 57.654 8.41622 58.7981 11.8418L58.8862 12.1055C59.504 13.9553 60.6586 15.5865 62.1942 16.7873C65.1057 19.0642 66.3449 22.8973 65.3028 26.4413L65.2548 26.6044C64.6989 28.4948 64.6989 30.5052 65.2548 32.3956L65.3028 32.5587C66.3449 36.1027 65.1057 39.9358 62.1942 42.2127C60.6586 43.4135 59.504 45.0447 58.8862 46.8945L58.7981 47.1582C57.654 50.5838 54.4676 52.9198 50.8554 52.9897C48.9222 53.0271 47.0419 53.6542 45.4744 54.7872C42.5054 56.9334 38.4946 56.9334 35.5256 54.7872C33.9581 53.6542 32.0778 53.0271 30.1446 52.9897C26.5324 52.9198 23.346 50.5838 22.2019 47.1582L22.1138 46.8945C21.496 45.0447 20.3414 43.4135 18.8058 42.2127C15.8943 39.9358 14.6551 36.1027 15.6972 32.5587L15.7452 32.3956C16.3011 30.5052 16.3011 28.4948 15.7452 26.6044L15.6972 26.4413C14.6551 22.8973 15.8943 19.0642 18.8058 16.7873C20.3414 15.5865 21.496 13.9553 22.1138 12.1055L22.2019 11.8418C23.346 8.41622 26.5324 6.08021 30.1446 6.0103C32.0778 5.97289 33.9581 5.34581 35.5256 4.21277Z" stroke="black"/>
<path id="Rectangle 59" d="M29 52V71.7218C29 74.2436 31.9226 75.6401 33.8847 74.0559L39.2436 69.7288C39.9766 69.1369 41.0234 69.1369 41.7565 69.7288L47.1153 74.0559C49.0774 75.6401 52 74.2436 52 71.7218V52" stroke="black"/>
</g>
</svg>
