<svg width="79" height="79" viewBox="0 0 79 79" fill="none" xmlns="http://www.w3.org/2000/svg">
<circle cx="38.5" cy="39.5" r="36" stroke="black"/>
<path d="M14.0156 13.2513L29.3143 28.55M65.1156 64.3513L47.5643 46.8" stroke="black"/>
<rect x="32.5" y="33.5" width="10" height="26" stroke="black"/>
<path d="M37.5 15L37.5 28" stroke="black"/>
<path d="M32.5 33L37.5 28" stroke="black" stroke-linecap="round"/>
<path d="M42.5 33L37.5 28" stroke="black" stroke-linecap="round"/>
<path d="M36 41C35.7239 41 35.5 41.2239 35.5 41.5C35.5 41.7761 35.7239 42 36 42V41ZM36 42H42V41H36V42Z" fill="black"/>
<path d="M36 37C35.7239 37 35.5 37.2239 35.5 37.5C35.5 37.7761 35.7239 38 36 38V37ZM36 38H42V37H36V38Z" fill="black"/>
<path d="M36 49C35.7239 49 35.5 49.2239 35.5 49.5C35.5 49.7761 35.7239 50 36 50V49ZM36 50H42V49H36V50Z" fill="black"/>
<path d="M36 45C35.7239 45 35.5 45.2239 35.5 45.5C35.5 45.7761 35.7239 46 36 46V45ZM36 46H42V45H36V46Z" fill="black"/>
<line x1="29" y1="59.5" x2="46" y2="59.5" stroke="black"/>
<rect x="35.5" y="59.5" width="4" height="6" stroke="black"/>
<line x1="33" y1="65.5" x2="42" y2="65.5" stroke="black"/>
</svg>
