<svg width="79" height="79" viewBox="0 0 79 79" fill="none" xmlns="http://www.w3.org/2000/svg">
<g id="icn_2">
<circle id="Ellipse 17" cx="38.5" cy="39.5" r="36" stroke="black"/>
<path id="Line 5" d="M14.0137 13.2513L29.3123 28.55M65.1137 64.3513L47.5623 46.8" stroke="black"/>
<path id="Vector 8" d="M49 29L41.8511 36.4894M34.7021 43.9787L28 51" stroke="black" stroke-linecap="round"/>
<path id="Line 10" d="M39 24L39 35.2805M39 61L39 45.2073" stroke="black" stroke-linecap="round"/>
<path id="Line 11" d="M20 40H33.2917M53 40H43.375" stroke="black" stroke-linecap="round"/>
<circle id="Ellipse 24" cx="38.5" cy="40.5" r="5" stroke="black"/>
<circle id="Ellipse 25" cx="58.5" cy="40.5" r="5" stroke="black"/>
<path id="Ellipse 27" d="M29.5 55C29.5 57.4415 27.3073 59.5 24.5 59.5C21.6927 59.5 19.5 57.4415 19.5 55C19.5 52.5585 21.6927 50.5 24.5 50.5C27.3073 50.5 29.5 52.5585 29.5 55Z" stroke="black"/>
<circle id="Ellipse 26" cx="38.5" cy="18.5" r="5" stroke="black"/>
</g>
</svg>
