<svg width="79" height="79" viewBox="0 0 79 79" fill="none" xmlns="http://www.w3.org/2000/svg">
<path d="M63.7047 15.8348C67.2148 19.3698 67.8745 25.2202 65.9116 31.9601C63.9543 38.681 59.4148 46.1654 52.7371 52.796C46.1251 59.3614 36.8186 62.0152 29.108 63.0157C25.2601 63.5149 21.8281 63.6 19.3584 63.5602C18.124 63.5403 17.1311 63.4892 16.4481 63.4432C16.1882 63.4257 15.9732 63.409 15.8069 63.395C15.7941 63.2286 15.7788 63.0135 15.7632 62.7534C15.722 62.0701 15.678 61.0769 15.6668 59.8424C15.6444 57.3725 15.7538 53.9412 16.2803 50.0969C17.3352 42.3935 20.0549 33.106 26.6668 26.5407C33.3445 19.9101 40.8608 15.4236 47.5954 13.5139C54.349 11.5987 60.1946 12.2997 63.7047 15.8348Z" stroke="black"/>
<path d="M16 63L63 15.5" stroke="black"/>
<line x1="42.5" y1="15" x2="42.5" y2="36" stroke="black"/>
<path d="M28 50C28 50.2761 28.2239 50.5 28.5 50.5C28.7761 50.5 29 50.2761 29 50L28 50ZM28 25L28 50L29 50L29 25L28 25Z" fill="black"/>
<path d="M42.5 36H64.5" stroke="black"/>
<path d="M55 51C55.2761 51 55.5 50.7761 55.5 50.5C55.5 50.2239 55.2761 50 55 50V51ZM28 51L55 51V50L28 50L28 51Z" fill="black"/>
</svg>
