<svg width="79" height="79" viewBox="0 0 79 79" fill="none" xmlns="http://www.w3.org/2000/svg">
<g id="icn_4_nowflake">
<path id="Vector" d="M38.419 1L38.419 78.1676M5.81975 57.1541L71.9634 20.4076M72.8556 57.1541L6.71195 20.4076M26.4764 8.3493L38.419 14.7799L50.3616 8.3493M26.4764 71.737L38.419 65.3064L50.3616 71.737M59.8955 13.8532L60.2977 27.4111L71.8381 34.5392M5 43.7097L16.5404 50.837L16.9426 64.3958M5.43735 32.3404L17.4239 25.992L18.7218 12.4905M59.9535 63.9212L61.2516 50.4196L73.238 44.0713" stroke="black" stroke-linecap="round"/>
<path id="Ellipse 29" d="M45.6523 38.3972C45.6523 42.5394 42.2945 45.8972 38.1523 45.8972C34.0102 45.8972 30.6523 42.5394 30.6523 38.3972C30.6523 34.2551 34.0102 30.8972 38.1523 30.8972C42.2945 30.8972 45.6523 34.2551 45.6523 38.3972Z" fill="#F7F7F7" stroke="black"/>
</g>
</svg>
