<svg width="85" height="85" viewBox="0 0 85 85" fill="none" xmlns="http://www.w3.org/2000/svg">
<g id="icn_3">
<circle id="Ellipse 17" cx="42" cy="42" r="39.5" stroke="#B18D60"/>
<path id="Line 5" d="M15.166 13.2344L35.8003 33.8687M71.166 69.2344L46.5316 44.6" stroke="#B18D60"/>
<path id="Rectangle 43" d="M24.2336 59.835L21.4886 56.9733L23.8392 53.7247L46.2508 32.2276L49.9889 36.1247L27.5772 57.6218L24.2336 59.835Z" stroke="#B18D60"/>
<rect id="Rectangle 44" x="42.707" y="28.8096" width="6.2" height="14.7746" transform="rotate(-43.8069 42.707 28.8096)" stroke="#B18D60"/>
<path id="Vector 5" d="M50.506 27.8402L55.4605 20.8708C59.1676 16.6214 66.4607 24.545 61.829 27.5103L54.9363 32.459" stroke="#B18D60"/>
<path id="Ellipse 18" d="M39.1002 65.9732C39.1002 67.4831 37.8875 68.6999 36.4002 68.6999C34.9129 68.6999 33.7002 67.4831 33.7002 65.9732C33.7002 65.6496 33.8544 65.1661 34.1483 64.5724C34.4338 63.9956 34.8196 63.376 35.213 62.8004C35.6052 62.2266 35.9983 61.706 36.2939 61.3283C36.331 61.281 36.3665 61.2359 36.4002 61.1933C36.4339 61.2359 36.4694 61.281 36.5065 61.3283C36.8021 61.706 37.1952 62.2266 37.5874 62.8004C37.9808 63.376 38.3665 63.9956 38.6521 64.5724C38.946 65.1661 39.1002 65.6496 39.1002 65.9732Z" stroke="#B18D60"/>
</g>
</svg>
