<svg width="85" height="85" viewBox="0 0 85 85" fill="none" xmlns="http://www.w3.org/2000/svg">
<g id="icn_1">
<circle id="Ellipse 17" cx="42" cy="42" r="39.5" stroke="#B18D60"/>
<path id="Line 5" d="M15.166 13.2344L31.9316 30M71.166 69.2344L51.9316 50" stroke="#B18D60"/>
<path id="Rectangle 47" d="M37.0769 25V46L28.3207 62.6004C27.2669 64.5982 28.7155 67 30.9742 67H53.0258C55.2845 67 56.7331 64.5982 55.6793 62.6004L46.9231 46V25" stroke="#B18D60"/>
<path id="Rectangle 48" d="M33.5 22C33.5 21.1716 34.1716 20.5 35 20.5H49C49.8284 20.5 50.5 21.1716 50.5 22V23C50.5 23.8284 49.8284 24.5 49 24.5H35C34.1716 24.5 33.5 23.8284 33.5 23V22Z" stroke="#B18D60"/>
</g>
</svg>
