<svg width="85" height="85" viewBox="0 0 85 85" fill="none" xmlns="http://www.w3.org/2000/svg">
<g id="icn_3">
<circle id="Ellipse 17" cx="42" cy="42" r="39.5" stroke="black"/>
<path id="Line 5" d="M15.1656 13.2344L35.8 33.8687M71.1656 69.2344L46.5313 44.6" stroke="black"/>
<path id="Rectangle 43" d="M24.2331 59.835L21.4881 56.9733L23.8387 53.7247L46.2503 32.2276L49.9884 36.1247L27.5767 57.6218L24.2331 59.835Z" stroke="black"/>
<rect id="Rectangle 44" x="42.707" y="28.8096" width="6.2" height="14.7746" transform="rotate(-43.8069 42.707 28.8096)" stroke="black"/>
<path id="Vector 5" d="M50.5065 27.8402L55.461 20.8708C59.1681 16.6214 66.4612 24.545 61.8295 27.5103L54.9368 32.459" stroke="black"/>
<path id="Ellipse 18" d="M39.1001 65.9732C39.1001 67.4831 37.8873 68.6999 36.4001 68.6999C34.9128 68.6999 33.7001 67.4831 33.7001 65.9732C33.7001 65.6496 33.8543 65.1661 34.1482 64.5724C34.4337 63.9956 34.8195 63.376 35.2129 62.8004C35.605 62.2266 35.9982 61.706 36.2938 61.3283C36.3309 61.281 36.3663 61.2359 36.4001 61.1933C36.4338 61.2359 36.4693 61.281 36.5063 61.3283C36.802 61.706 37.1951 62.2266 37.5873 62.8004C37.9806 63.376 38.3664 63.9956 38.652 64.5724C38.9459 65.1661 39.1001 65.6496 39.1001 65.9732Z" stroke="black"/>
</g>
</svg>
