<svg width="85" height="72" viewBox="0 0 85 72" fill="none" xmlns="http://www.w3.org/2000/svg">
<g id="Frame 3" clip-path="url(#clip0_265_32)">
<g id="NO Secret">
<path id="Vector" d="M85 51.064V52.128H79.024V71H78.0043V52.128H72.0046V51.064H85Z" fill="black"/>
<path id="Vector_2" d="M71.8488 51.064V52.128H61.4858V60.108H71.2086V61.172H61.4858V69.936H71.9437V71H60.4661V51.064H71.8488Z" fill="black"/>
<path id="Vector_3" d="M45.6712 51.064H52.6195C54.1372 51.064 55.3071 51.372 56.1292 51.988C57.3781 52.9773 58.0026 54.4333 58.0026 56.356C58.0026 57.6813 57.6785 58.7826 57.0303 59.66C56.3821 60.5373 55.5126 61.0973 54.4217 61.34C55.2913 61.508 55.9869 61.816 56.5086 62.264C57.0303 62.6933 57.3702 63.412 57.5283 64.42C57.6232 65.0173 57.6943 65.9506 57.7417 67.22C57.7891 68.4706 57.8682 69.4133 57.9789 70.048C58.0263 70.328 58.137 70.6453 58.3109 71H57.1726C57.0777 70.832 56.9987 70.5613 56.9354 70.188C56.9038 69.9266 56.8722 69.5253 56.8406 68.984C56.809 68.4426 56.7774 67.864 56.7457 67.248C56.7299 66.632 56.7141 66.2493 56.6983 66.1C56.5876 64.3453 56.1687 63.1973 55.4415 62.656C54.73 62.1146 53.5601 61.844 51.9318 61.844H46.6909V71H45.6712V51.064ZM46.6909 52.1V60.836H51.7895C52.3586 60.836 52.8724 60.808 53.3309 60.752C53.7894 60.6773 54.2557 60.5466 54.73 60.36C55.2043 60.1733 55.5995 59.9213 55.9157 59.604C56.2319 59.2866 56.4849 58.8573 56.6746 58.316C56.8801 57.7746 56.9829 57.14 56.9829 56.412C56.9829 54.8066 56.4691 53.6306 55.4415 52.884C54.7142 52.3613 53.6629 52.1 52.2875 52.1H46.6909Z" fill="black"/>
<path id="Vector_4" d="M43.416 63.2719C43.2579 65.6986 42.5069 67.6679 41.1631 69.1799C39.8193 70.6919 38.1356 71.4479 36.112 71.4479C33.788 71.4479 31.9146 70.5052 30.4918 68.6199C29.0847 66.7159 28.3812 64.2052 28.3812 61.0879C28.3812 57.9519 29.1006 55.4226 30.5392 53.4999C31.9937 51.5586 33.8908 50.5879 36.2306 50.5879C37.938 50.5879 39.4715 51.1852 40.8311 52.3799C42.1908 53.5559 42.9654 55.1146 43.1551 57.0559H42.1591C41.8588 55.3946 41.171 54.0879 40.096 53.1359C39.021 52.1652 37.7167 51.6799 36.1832 51.6799C34.1596 51.6799 32.5233 52.5479 31.2743 54.2839C30.0254 56.0012 29.4009 58.2599 29.4009 61.0599C29.4009 63.8599 30.0175 66.1186 31.2506 67.8359C32.4838 69.5346 34.1121 70.3839 36.1357 70.3839C37.9222 70.3839 39.3688 69.7212 40.4754 68.3959C41.5821 67.0706 42.2382 65.3626 42.4437 63.2719H43.416Z" fill="black"/>
<path id="Vector_5" d="M26.9449 51.064V52.128H16.5818V60.108H26.3046V61.172H16.5818V69.936H27.0397V71H15.5621V51.064H26.9449Z" fill="black"/>
<path id="Vector_6" d="M12.7903 56.748H11.7706C11.5967 53.388 9.82605 51.708 6.45865 51.708C4.97256 51.708 3.81057 52.0814 2.97267 52.828C2.13477 53.556 1.71582 54.5734 1.71582 55.88C1.71582 56.4587 1.80278 56.9627 1.97668 57.392C2.15058 57.8214 2.37982 58.176 2.66439 58.456C2.94896 58.736 3.32048 58.988 3.77895 59.212C4.23743 59.4174 4.7038 59.5947 5.17809 59.744C5.66818 59.8747 6.23732 60.024 6.8855 60.192C7.23331 60.2667 7.49416 60.332 7.66807 60.388C8.20559 60.5374 8.58501 60.6494 8.80635 60.724C9.04349 60.78 9.3992 60.9014 9.87348 61.088C10.3636 61.256 10.7272 61.4147 10.9643 61.564C11.2015 61.7134 11.486 61.928 11.818 62.208C12.1658 62.488 12.4188 62.7867 12.5769 63.104C12.7508 63.4027 12.901 63.7854 13.0275 64.252C13.1539 64.7 13.2172 65.1947 13.2172 65.736C13.2172 67.5094 12.6559 68.9 11.5335 69.908C10.411 70.916 8.86168 71.42 6.8855 71.42C4.81447 71.42 3.17819 70.832 1.97668 69.656C0.790973 68.48 0.19812 66.7254 0.19812 64.392H1.1704C1.20202 66.408 1.71582 67.92 2.71182 68.928C3.72362 69.9174 5.13066 70.412 6.93293 70.412C8.59292 70.412 9.88929 70.0107 10.822 69.208C11.7548 68.3867 12.2212 67.248 12.2212 65.792C12.2212 65.3627 12.1658 64.9707 12.0552 64.616C11.9445 64.2614 11.8101 63.9534 11.652 63.692C11.5098 63.4307 11.2884 63.188 10.988 62.964C10.7035 62.74 10.4505 62.5627 10.2292 62.432C10.0079 62.3014 9.69167 62.1707 9.28063 62.04C8.88539 61.8907 8.58502 61.788 8.37949 61.732C8.17397 61.676 7.84988 61.592 7.40721 61.48C6.98036 61.368 6.69579 61.2934 6.5535 61.256C4.79866 60.7707 3.63667 60.3787 3.06753 60.08C1.48659 59.24 0.696117 57.8494 0.696117 55.908C0.696117 54.284 1.20992 53.0054 2.23753 52.072C3.28096 51.12 4.71171 50.644 6.52979 50.644C8.37949 50.644 9.85767 51.148 10.9643 52.156C12.071 53.164 12.6797 54.6947 12.7903 56.748Z" fill="black"/>
<path id="Vector_7" d="M49.9514 14.5879C52.3386 14.5879 54.2753 15.5679 55.7613 17.5279C57.2632 19.4879 58.0142 22.0359 58.0142 25.1719C58.0142 28.2519 57.2711 30.7439 55.7851 32.6479C54.299 34.5332 52.3544 35.4759 49.9514 35.4759C47.5483 35.4759 45.6117 34.5239 44.1414 32.6199C42.6869 30.6972 41.9597 28.1679 41.9597 25.0319C41.9597 21.9332 42.6949 19.4226 44.1651 17.4999C45.6512 15.5586 47.58 14.5879 49.9514 14.5879ZM49.9514 15.6519C48.5127 15.6519 47.2559 16.0999 46.1808 16.9959C45.1058 17.8732 44.3074 19.0119 43.7857 20.4119C43.264 21.7932 43.0031 23.3146 43.0031 24.9759C43.0031 27.7946 43.6434 30.0719 44.924 31.8079C46.2045 33.5439 47.8803 34.4119 49.9514 34.4119C52.0382 34.4119 53.7298 33.5532 55.0262 31.8359C56.3226 30.1186 56.9708 27.8786 56.9708 25.1159C56.9708 22.3159 56.3147 20.0386 55.0025 18.2839C53.7061 16.5292 52.0224 15.6519 49.9514 15.6519Z" fill="black"/>
<path id="Vector_8" d="M39.5472 15.064V35H38.3852L28.9233 19.208C28.3067 18.1626 27.8166 17.248 27.453 16.464C27.5004 16.968 27.5241 17.9853 27.5241 19.516V35H26.5281V15.064H27.7138L36.9861 30.576C37.5078 31.472 38.0532 32.4706 38.6223 33.572C38.5749 32.3213 38.5512 31.052 38.5512 29.764L38.5275 15.064H39.5472Z" fill="black"/>
</g>
</g>
<defs>
<clipPath id="clip0_265_32">
<rect width="85" height="71.5347" fill="white"/>
</clipPath>
</defs>
</svg>
