<svg width="85" height="85" viewBox="0 0 85 85" fill="none" xmlns="http://www.w3.org/2000/svg">
<g id="icn_garantee">
<circle id="Ellipse 28" cx="43" cy="32" r="20.5" stroke="black"/>
<path id="Vector 9" d="M34.5 31L42 39L52.5 25" stroke="black"/>
<path id="Star 1" d="M19.1917 18.3202L18.8842 17.9259L19.1917 18.3202L19.4385 18.1277C21.0655 16.8589 22.2826 15.1389 22.9378 13.1825L23.0487 12.8512C24.303 9.10613 27.7874 6.55348 31.7374 6.47724C33.8302 6.43685 35.8656 5.75945 37.564 4.53514C40.8102 2.19497 45.1898 2.19497 48.436 4.53514C50.1344 5.75945 52.1698 6.43685 54.2626 6.47724C58.2126 6.55348 61.697 9.10613 62.9513 12.8512L63.0622 13.1825C63.7174 15.1389 64.9345 16.8589 66.5615 18.1277L66.8083 18.3202C69.8849 20.7195 71.1817 24.756 70.0783 28.4982L69.9213 29.0304C69.3498 30.9689 69.3498 33.0311 69.9213 34.9696L70.0782 35.5018C71.1817 39.244 69.8849 43.2805 66.8083 45.6798L66.5615 45.8723C64.9345 47.1411 63.7174 48.8611 63.0622 50.8175L62.9513 51.1488C61.697 54.8939 58.2126 57.4465 54.2626 57.5228C52.1698 57.5631 50.1344 58.2405 48.436 59.4649C45.1898 61.805 40.8102 61.805 37.564 59.4649C35.8656 58.2405 33.8302 57.5631 31.7374 57.5228C27.7874 57.4465 24.303 54.8939 23.0487 51.1488L22.9378 50.8175C22.2826 48.8611 21.0655 47.1411 19.4385 45.8723L19.131 46.2666L19.4385 45.8723L19.1917 45.6798C16.1151 43.2805 14.8183 39.244 15.9218 35.5018L16.0786 34.9696C16.6502 33.0311 16.6502 30.9689 16.0786 29.0304L15.9218 28.4982C14.8183 24.756 16.1151 20.7195 19.1917 18.3202Z" stroke="black"/>
<path id="Rectangle 59" d="M31 57V78.7581C31 81.2736 33.9098 82.6722 35.8741 81.1007L42.2506 75.9995C42.981 75.4152 44.019 75.4152 44.7494 75.9995L51.1259 81.1007C53.0902 82.6722 56 81.2736 56 78.7581V57" stroke="black"/>
</g>
</svg>
