<svg width="85" height="85" viewBox="0 0 85 85" fill="none" xmlns="http://www.w3.org/2000/svg">
<g id="icn_1">
<path id="Vector" d="M45.8831 31.6893C45.7067 31.9018 45.7359 32.217 45.9484 32.3934C46.1609 32.5698 46.4761 32.5406 46.6525 32.3281L45.8831 31.6893ZM65.8817 8.38426L65.497 8.06487L65.8817 8.38426ZM79.4846 21.1176L79.8529 21.4559L79.4846 21.1176ZM78.9889 7.53018L79.3306 7.16514L78.9889 7.53018ZM36.7046 18.0924H36.2046V18.5677L36.6792 18.5918L36.7046 18.0924ZM53.0177 4.25988L53.5109 4.17745L53.4508 3.81787L53.0901 3.76513L53.0177 4.25988ZM29.9432 28.0924L29.9701 28.5917L30.4432 28.5662V28.0924H29.9432ZM14.5896 14.2599L14.5129 13.7658L14.1524 13.8218L14.0957 14.1822L14.5896 14.2599ZM79.6705 32C79.6705 54.9661 62.7684 73.5 42.0171 73.5V74.5C63.4089 74.5 80.6705 55.4258 80.6705 32H79.6705ZM42.0171 73.5C21.2658 73.5 4.36365 54.9661 4.36365 32H3.36365C3.36365 55.4258 20.6253 74.5 42.0171 74.5V73.5ZM3.86365 33H80.1705V32H3.86365V33ZM6.76137 48H77.2727V47H6.76137V48ZM13.5227 60H70.5114V59H13.5227V60ZM53.5909 72V76H54.5909V72H53.5909ZM50.2273 79.5H33.8068V80.5H50.2273V79.5ZM30.4432 76V72H29.4432V76H30.4432ZM33.8068 79.5C31.9654 79.5 30.4432 77.9495 30.4432 76H29.4432C29.4432 78.4688 31.3807 80.5 33.8068 80.5V79.5ZM53.5909 76C53.5909 77.9495 52.0688 79.5 50.2273 79.5V80.5C52.6535 80.5 54.5909 78.4688 54.5909 76H53.5909ZM46.6525 32.3281L66.2664 8.70365L65.497 8.06487L45.8831 31.6893L46.6525 32.3281ZM79.1164 20.7794L69.1135 31.6705L69.8501 32.3469L79.8529 21.4559L79.1164 20.7794ZM78.6472 7.89522C82.2707 11.2868 82.4845 17.1122 79.1164 20.7794L79.8529 21.4559C83.5905 17.3864 83.3564 10.9333 79.3306 7.16514L78.6472 7.89522ZM79.3306 7.16514C75.2944 3.38719 69.0401 3.79723 65.497 8.06487L66.2664 8.70365C69.4447 4.87545 75.0346 4.51371 78.6472 7.89522L79.3306 7.16514ZM37.2046 18.0924C37.2046 14.125 38.2008 11.3433 39.6547 9.38778C41.1106 7.42966 43.0568 6.2577 45.0267 5.5665C46.9997 4.87422 48.9821 4.66976 50.4786 4.64057C51.2251 4.62601 51.8464 4.65514 52.2793 4.68768C52.4957 4.70394 52.6647 4.72103 52.7784 4.73389C52.8352 4.74032 52.8782 4.74568 52.9064 4.74935C52.9205 4.75118 52.9309 4.75259 52.9374 4.7535C52.9407 4.75395 52.943 4.75428 52.9444 4.75447C52.945 4.75456 52.9454 4.75462 52.9456 4.75465C52.9457 4.75466 52.9457 4.75465 52.9457 4.75466C52.9456 4.75464 52.9454 4.75462 53.0177 4.25988C53.0901 3.76513 53.0898 3.76509 53.0894 3.76504C53.0892 3.76501 53.0888 3.76495 53.0884 3.76489C53.0876 3.76477 53.0865 3.76462 53.0852 3.76443C53.0826 3.76406 53.079 3.76356 53.0744 3.76292C53.0653 3.76166 53.0523 3.7599 53.0355 3.75771C53.0019 3.75335 52.9533 3.7473 52.8907 3.74022C52.7655 3.72606 52.584 3.70776 52.3543 3.69049C51.8951 3.65597 51.2419 3.62549 50.4591 3.64076C48.8968 3.67123 46.8009 3.88419 44.6956 4.6229C42.5872 5.36268 40.4551 6.63527 38.8522 8.79113C37.2474 10.9496 36.2046 13.9513 36.2046 18.0924H37.2046ZM53.0177 4.25988C52.5246 4.34231 52.5245 4.34207 52.5245 4.34189C52.5245 4.3419 52.5245 4.34177 52.5245 4.3418C52.5245 4.34185 52.5246 4.34212 52.5246 4.34262C52.5248 4.34361 52.5251 4.34548 52.5255 4.34821C52.5264 4.35368 52.5278 4.36261 52.5296 4.37489C52.5332 4.39945 52.5385 4.43738 52.5448 4.48776C52.5574 4.58853 52.5739 4.73896 52.5887 4.93164C52.6183 5.3173 52.6408 5.87062 52.6109 6.53287C52.5511 7.86065 52.2819 9.60714 51.4553 11.3162C50.6323 13.0179 49.2527 14.6924 46.9478 15.8899C44.6369 17.0905 41.3633 17.8284 36.7299 17.5931L36.6792 18.5918C41.4382 18.8335 44.8999 18.0808 47.4088 16.7773C49.9238 15.4706 51.4484 13.6274 52.3556 11.7516C53.2592 9.88333 53.5461 7.99279 53.6099 6.57789C53.6419 5.8688 53.618 5.27437 53.5858 4.85511C53.5697 4.64534 53.5515 4.47901 53.5371 4.36365C53.5298 4.30596 53.5236 4.26098 53.519 4.22964C53.5167 4.21397 53.5148 4.20171 53.5134 4.19297C53.5127 4.1886 53.5122 4.18511 53.5117 4.18252C53.5115 4.18122 53.5114 4.18015 53.5112 4.17931C53.5111 4.17888 53.5111 4.17842 53.511 4.17821C53.511 4.1778 53.5109 4.17745 53.0177 4.25988ZM30.4432 28.0924C30.4432 23.9576 29.4635 20.9602 27.9539 18.8028C26.4445 16.6458 24.4337 15.3691 22.4411 14.6262C20.4526 13.8849 18.4735 13.6713 16.999 13.6408C16.26 13.6255 15.6433 13.656 15.2095 13.6907C14.9925 13.708 14.821 13.7264 14.7024 13.7406C14.6431 13.7477 14.5971 13.7538 14.5652 13.7582C14.5492 13.7604 14.5368 13.7622 14.528 13.7635C14.5237 13.7642 14.5202 13.7647 14.5177 13.7651C14.5164 13.7653 14.5154 13.7654 14.5146 13.7655C14.5142 13.7656 14.5137 13.7657 14.5135 13.7657C14.5132 13.7658 14.5129 13.7658 14.5896 14.2599C14.6663 14.754 14.6662 14.754 14.666 14.754C14.6661 14.754 14.666 14.754 14.666 14.754C14.6662 14.754 14.6665 14.7539 14.6671 14.7538C14.6683 14.7537 14.6704 14.7533 14.6734 14.7529C14.6794 14.752 14.689 14.7506 14.7021 14.7488C14.7283 14.7452 14.7685 14.7399 14.8217 14.7335C14.928 14.7207 15.0863 14.7037 15.2891 14.6875C15.695 14.6551 16.2778 14.626 16.9782 14.6406C18.3825 14.6697 20.2418 14.8735 22.0917 15.5632C23.9375 16.2513 25.7651 17.4192 27.1345 19.3761C28.5037 21.3327 29.4432 24.1187 29.4432 28.0924H30.4432ZM14.5896 14.2599C14.0957 14.1822 14.0956 14.1825 14.0956 14.1829C14.0955 14.1831 14.0955 14.1836 14.0954 14.184C14.0953 14.1848 14.0951 14.1858 14.0949 14.1871C14.0945 14.1897 14.094 14.1931 14.0934 14.1974C14.0921 14.2061 14.0903 14.2183 14.0882 14.2338C14.0839 14.265 14.078 14.3098 14.0712 14.3673C14.0577 14.4822 14.0406 14.6481 14.0255 14.8573C13.9953 15.2756 13.9728 15.8689 14.0028 16.5766C14.0627 17.9885 14.3322 19.8756 15.1814 21.7411C16.0337 23.6135 17.469 25.4603 19.8439 26.7713C22.2142 28.0798 25.4826 28.8339 29.9701 28.5917L29.9163 27.5932C25.5639 27.828 22.4932 27.0916 20.3272 25.8959C18.1658 24.7027 16.8677 23.0318 16.0916 21.3268C15.3123 19.6149 15.0584 17.8649 15.0019 16.5342C14.9738 15.8706 14.9949 15.316 15.0229 14.9294C15.0368 14.7362 15.0525 14.5853 15.0644 14.4842C15.0703 14.4336 15.0753 14.3954 15.0788 14.3707C15.0805 14.3583 15.0818 14.3493 15.0826 14.3437C15.083 14.341 15.0833 14.3391 15.0835 14.338C15.0835 14.3375 15.0836 14.3372 15.0836 14.3371C15.0836 14.3371 15.0836 14.3372 15.0836 14.3372C15.0836 14.3374 15.0835 14.3376 14.5896 14.2599Z" fill="black"/>
</g>
</svg>
