<svg width="85" height="85" viewBox="0 0 85 85" fill="none" xmlns="http://www.w3.org/2000/svg">
<path d="M30 26V55C30 57.7614 32.2386 60 35 60H50C52.7614 60 55 57.7614 55 55V26" stroke="black"/>
<path d="M35 26V44C35 45.1046 35.8954 46 37 46H38C39.1046 46 40 45.1046 40 44V26" stroke="black"/>
<path d="M45 26V44C45 45.1046 45.8954 46 47 46H48C49.1046 46 50 45.1046 50 44V26" stroke="black"/>
<path d="M37 60V77M48 60V77" stroke="black"/>
<rect x="35.5" y="77.5" width="14" height="4" stroke="black"/>
<path d="M7.5 13.7919C7.5 9.05162 11.8517 5.45911 16.5511 6.22733C24.0414 7.45176 34.4934 8.88095 42.5 8.88095C50.5066 8.88095 60.9586 7.45176 68.4489 6.22733C73.1483 5.45911 77.5 9.05162 77.5 13.7919V16.083C77.5 19.6503 74.9897 22.71 71.489 23.3192C64.0342 24.6165 51.6314 26.5 42.5 26.5C33.3686 26.5 20.9658 24.6165 13.511 23.3192C10.0102 22.71 7.5 19.6503 7.5 16.0831V13.7919Z" stroke="black"/>
<path d="M30 8V15C30 16.1046 30.8954 17 32 17V17C33.1046 17 34 16.1046 34 15V8" stroke="black"/>
<path d="M53 8V15.5C53 16.3284 53.6716 17 54.5 17V17C55.3284 17 56 16.3284 56 15.5V8" stroke="black"/>
<path d="M40 9V20C40 21.1046 40.8954 22 42 22H43C44.1046 22 45 21.1046 45 20V9" stroke="black"/>
</svg>
