<svg width="85" height="85" viewBox="0 0 85 85" fill="none" xmlns="http://www.w3.org/2000/svg">
<g id="icn_snowflake">
<path id="Line 12" d="M41.181 3.41602L41.181 80.5836" stroke="black" stroke-linecap="round"/>
<path id="Line 13" d="M8.58167 59.5703L74.7253 22.8238" stroke="black" stroke-linecap="round"/>
<path id="Line 14" d="M75.6176 59.5703L9.47387 22.8238" stroke="black" stroke-linecap="round"/>
<path id="Vector 10" d="M29.2384 10.7651L41.181 17.1958" stroke="black" stroke-linecap="round"/>
<path id="Vector 11" d="M53.1237 10.7651L41.181 17.1958" stroke="black" stroke-linecap="round"/>
<path id="Vector 13" d="M29.2384 74.1528L41.181 67.7222" stroke="black" stroke-linecap="round"/>
<path id="Vector 12" d="M53.1237 74.1528L41.181 67.7222" stroke="black" stroke-linecap="round"/>
<path id="Vector 17" d="M62.6575 16.269L63.0597 29.827" stroke="black" stroke-linecap="round"/>
<path id="Vector 16" d="M74.6 36.9551L63.0596 29.8278" stroke="black" stroke-linecap="round"/>
<path id="Vector 15" d="M7.76196 46.126L19.3024 53.2533" stroke="black" stroke-linecap="round"/>
<path id="Vector 14" d="M19.7046 66.812L19.3024 53.2541" stroke="black" stroke-linecap="round"/>
<path id="Vector 21" d="M8.19934 34.7563L20.1859 28.4079" stroke="black" stroke-linecap="round"/>
<path id="Vector 20" d="M21.4838 14.9062L20.1857 28.4079" stroke="black" stroke-linecap="round"/>
<path id="Vector 19" d="M62.7155 66.3374L64.0135 52.8358" stroke="black" stroke-linecap="round"/>
<path id="Vector 18" d="M76 46.4873L64.0135 52.8357" stroke="black" stroke-linecap="round"/>
<circle id="Ellipse 29" cx="41.181" cy="41.0809" r="7.76796" fill="#F7F7F7" stroke="black"/>
</g>
</svg>
