<svg width="85" height="85" viewBox="0 0 85 85" fill="none" xmlns="http://www.w3.org/2000/svg">
<g id="chef_16964327 1">
<g id="Chef">
<g id="Group">
<path id="Vector" d="M68.6953 63.916L52.6097 56.0887C51.6435 55.6112 50.9615 54.6982 50.7855 53.647L50.488 51.8606L54.487 49.0377C55.5734 48.2714 56.3623 47.173 56.7501 45.912C57.5875 45.5686 65.5084 42.156 64.3058 36.5473C63.9439 34.8573 63.1424 33.6912 61.9245 33.0816C60.8394 32.5384 59.6302 32.557 58.6606 32.7243L59.9814 25.591C64.944 24.5205 68.3984 20.8456 68.3984 16.6016C68.3984 11.475 63.3343 7.30469 57.1094 7.30469C56.6784 7.30469 56.2341 7.33324 55.7739 7.38039C55.7534 7.38039 55.7354 7.37242 55.7148 7.37441C55.6531 7.38039 55.5933 7.39367 55.5316 7.40031C52.7737 4.46648 47.8251 2.65625 42.5 2.65625C37.1749 2.65625 32.2263 4.46648 29.4691 7.40098C29.4073 7.39367 29.3476 7.38105 29.2858 7.37508C29.2652 7.37309 29.2466 7.38105 29.2267 7.38105C28.7659 7.33324 28.3216 7.30469 27.8906 7.30469C21.6657 7.30469 16.6016 11.475 16.6016 16.6016C16.6016 20.8522 20.0534 24.5192 25.0179 25.5896L26.3387 32.7237C25.3698 32.557 24.1606 32.5384 23.0748 33.0816C21.857 33.6905 21.0554 34.8566 20.6935 36.5473C19.4916 42.156 27.4125 45.568 28.2499 45.9113C28.6377 47.1723 29.4266 48.2707 30.5123 49.037L34.5127 51.8606L34.2152 53.6483C34.1242 54.1968 33.8871 54.7247 33.5305 55.1716C33.2124 55.5641 32.8293 55.8729 32.3956 56.0874L16.3041 63.9167C12.4505 65.7946 9.96094 69.7797 9.96094 74.0695V81.6797C9.96094 82.0462 10.2578 82.3438 10.625 82.3438H74.375C74.7422 82.3438 75.0391 82.0462 75.0391 81.6797V74.0695C75.0391 69.7797 72.5495 65.7946 68.6953 63.916ZM27.7007 32.7808L25.5345 21.0827C26.3055 21.1902 27.0964 21.25 27.8906 21.25C30.7727 21.25 33.5205 20.5195 35.5074 19.2492C37.5235 20.0952 39.9334 20.5859 42.5 20.5859C45.0646 20.5859 47.4738 20.0952 49.4886 19.2512C51.4735 20.5202 54.2333 21.25 57.1094 21.25C57.9036 21.25 58.6945 21.1902 59.4661 21.0827L57.3013 32.7748C54.5554 31.0801 49.3206 28.5547 42.5 28.5547C39.4759 28.5547 33.6055 29.1218 27.7007 32.7808ZM17.9297 16.6016C17.9297 12.2075 22.3982 8.63281 27.8906 8.63281C28.4325 8.63281 28.9936 8.67531 29.6032 8.76031C30.7733 8.92234 31.8896 9.23977 32.9202 9.72453C33.0119 9.7677 33.1075 9.78762 33.2025 9.78762C33.4521 9.78762 33.6905 9.64684 33.8041 9.40578C33.9595 9.07375 33.8174 8.67863 33.486 8.52258C32.7223 8.16398 31.9168 7.89238 31.0834 7.69051C33.6872 5.38422 37.9273 3.98438 42.5 3.98438C47.0727 3.98438 51.3128 5.38422 53.9166 7.69117C53.0832 7.89305 52.277 8.16398 51.514 8.52324C51.1826 8.6793 51.0398 9.07441 51.1959 9.40645C51.3095 9.64684 51.5479 9.78828 51.7975 9.78828C51.8925 9.78828 51.9881 9.76836 52.0798 9.7252C53.1104 9.24043 54.2267 8.92367 55.3968 8.76098C56.0064 8.67531 56.5675 8.63281 57.1094 8.63281C62.6018 8.63281 67.0703 12.2075 67.0703 16.6016C67.0703 20.0593 64.2972 23.0888 60.2464 24.1626L60.864 20.827C61.2372 20.74 61.6038 20.6424 61.9584 20.5302C62.3083 20.4193 62.5016 20.0461 62.3907 19.6968C62.2804 19.3481 61.9059 19.1529 61.5573 19.2645C60.1986 19.6941 58.6606 19.9219 57.1094 19.9219C54.8197 19.9219 52.627 19.4252 50.9256 18.5473C52.9245 17.4184 54.3635 15.8937 54.8921 14.1366C54.997 13.7853 54.7978 13.4147 54.4471 13.3091C54.0912 13.2036 53.7253 13.4034 53.6197 13.7534C52.6768 16.8918 47.8962 19.2578 42.5 19.2578C37.1038 19.2578 32.3232 16.8918 31.3803 13.7541C31.274 13.4034 30.9081 13.2036 30.5529 13.3098C30.2022 13.4154 30.003 13.7853 30.1079 14.1372C30.6359 15.8937 32.0749 17.4184 34.0717 18.5466C32.3711 19.4245 30.1863 19.9219 27.8906 19.9219C26.3394 19.9219 24.8014 19.6941 23.4427 19.2638C23.0961 19.1509 22.7202 19.3468 22.6093 19.6961C22.4984 20.0454 22.6917 20.4186 23.0416 20.5295C23.3963 20.6417 23.7621 20.74 24.136 20.8263L24.7543 24.1639C20.7002 23.0914 17.9297 20.0653 17.9297 16.6016ZM29.422 45.1629L28.5394 41.1905C28.4597 40.8319 28.1045 40.6094 27.7472 40.6864C27.3893 40.7661 27.1635 41.1207 27.2425 41.4787L27.8627 44.2711C25.8181 43.257 21.2002 40.5231 21.9931 36.8256C22.266 35.5519 22.8291 34.6926 23.6659 34.2716C25.3187 33.4402 27.5918 34.4609 27.6144 34.4708C27.9484 34.6242 28.3422 34.4768 28.4943 34.1441C28.5427 34.0385 28.5514 33.9289 28.5441 33.8214C34.1202 30.4141 39.6432 29.8828 42.5 29.8828C48.8803 29.8828 53.805 32.203 56.4579 33.8154C56.4493 33.925 56.4573 34.0365 56.5064 34.1441C56.6585 34.4768 57.0523 34.6242 57.3863 34.4708C57.4089 34.4609 59.682 33.4402 61.3348 34.2716C62.1715 34.692 62.734 35.5513 63.0076 36.8256C63.7998 40.5231 59.1826 43.2577 57.1379 44.2711L57.7582 41.4787C57.8372 41.1207 57.6114 40.7661 57.2535 40.6864C56.8989 40.6101 56.5409 40.8325 56.4613 41.1905L55.5787 45.1629C55.3277 46.2938 54.6683 47.2839 53.7213 47.952L45.738 53.5879C43.8328 54.9312 41.1679 54.9312 39.264 53.5879L31.2787 47.952C30.3324 47.2846 29.673 46.2938 29.422 45.1629ZM38.4977 54.6736C39.6744 55.5043 41.059 55.9439 42.5 55.9439C43.941 55.9439 45.3256 55.5043 46.503 54.6736L49.2827 52.7113L49.4746 53.8661C49.5391 54.2466 49.652 54.6132 49.8047 54.9605V57.3976C49.8047 59.7809 48.3916 61.9338 46.2048 62.8814L42.5 64.4871L38.7952 62.8821C36.6084 61.9338 35.1953 59.7816 35.1953 57.3982V54.9611C35.3507 54.6098 35.4629 54.242 35.5247 53.8654L35.7173 52.7113L38.4977 54.6736ZM11.2891 74.0695C11.2891 70.2837 13.4864 66.7675 16.8858 65.1107L32.9787 57.28C33.2974 57.1227 33.5929 56.9294 33.8672 56.705V57.3982C33.8672 60.3115 35.5944 62.9425 38.2673 64.1006L40.8299 65.2109L32.6825 68.7411C30.9812 69.4782 29.8821 71.1523 29.8821 73.0064V81.0156H11.2891V74.0695ZM73.7109 81.0156H50.4688V71.0547C50.4688 70.6881 50.1719 70.3906 49.8047 70.3906C49.4375 70.3906 49.1406 70.6881 49.1406 71.0547V81.0156H31.2109V73.0064C31.2109 71.6822 31.9965 70.4863 33.2111 69.9596L46.7327 64.1006C49.4056 62.9418 51.1328 60.3108 51.1328 57.3982V56.7043C51.4051 56.9268 51.7026 57.1227 52.0247 57.282L68.1142 65.1113C71.5142 66.7682 73.7116 70.285 73.7116 74.0702L73.7109 81.0156Z" fill="black"/>
<path id="Vector_2" d="M37.1875 72.3828C35.7226 72.3828 34.5312 73.5741 34.5312 75.0391C34.5312 76.504 35.7226 77.6953 37.1875 77.6953C38.6524 77.6953 39.8438 76.504 39.8438 75.0391C39.8438 73.5741 38.6524 72.3828 37.1875 72.3828ZM37.1875 76.3672C36.455 76.3672 35.8594 75.7715 35.8594 75.0391C35.8594 74.3066 36.455 73.7109 37.1875 73.7109C37.92 73.7109 38.5156 74.3066 38.5156 75.0391C38.5156 75.7715 37.92 76.3672 37.1875 76.3672Z" fill="black"/>
</g>
</g>
</g>
</svg>
