<svg width="85" height="85" viewBox="0 0 85 85" fill="none" xmlns="http://www.w3.org/2000/svg">
<g id="icon_dish">
<path id="Ellipse 15" d="M80 58C80 37.5655 63.4345 21 43 21C22.5655 21 6 37.5655 6 58" stroke="black"/>
<circle id="Ellipse 16" cx="43" cy="17" r="3.5" stroke="black"/>
<path id="Rectangle 38" d="M3.5 59.4C3.5 58.9029 3.90294 58.5 4.4 58.5H80.6C81.0971 58.5 81.5 58.9029 81.5 59.4C81.5 62.2167 79.2167 64.5 76.4 64.5H8.6C5.78335 64.5 3.5 62.2167 3.5 59.4Z" stroke="black"/>
<path id="Rectangle 39" d="M8.5 65C8.5 64.7239 8.72386 64.5 9 64.5H76C76.2761 64.5 76.5 64.7239 76.5 65C76.5 66.933 74.933 68.5 73 68.5H12C10.067 68.5 8.5 66.933 8.5 65Z" stroke="black"/>
</g>
</svg>
