<svg width="85" height="85" viewBox="0 0 85 85" fill="none" xmlns="http://www.w3.org/2000/svg">
<g id="meat_9340813 1">
<path id="Vector" d="M24.9706 77.9052C16.5717 77.9052 9.73865 71.7425 9.73865 64.1674C9.73865 63.8046 9.8092 55.2317 15.9221 49.8643C16.2184 49.5558 21.5892 43.7996 20.2076 34.7738C20.2056 34.7627 20.2039 34.7515 20.2026 34.7404C20.141 34.3329 18.5493 24.2149 12.1127 15.6329C11.9144 15.3686 11.9407 14.9985 12.1744 14.7648C12.339 14.6004 16.2554 10.758 21.0719 12.3632C21.1604 12.3927 21.2417 12.4405 21.3106 12.5036C21.6757 12.8383 30.089 20.6512 31.8694 30.8879C32.6669 30.7135 33.4847 30.5392 34.3146 30.3659C33.9972 28.2638 32.5616 21.0875 27.0542 13.7443C26.856 13.48 26.8823 13.1099 27.116 12.8762C27.2804 12.7118 31.1967 8.86905 36.0134 10.4746C36.087 10.4992 36.1556 10.5363 36.2163 10.5845C36.5834 10.876 45.0591 17.7097 46.8211 27.9613C47.8831 27.7704 48.9148 27.5878 49.9003 27.4152C49.2188 25.2158 46.7314 18.0663 41.2486 10.7558C41.0504 10.4915 41.0766 10.1215 41.3103 9.88772C41.4747 9.72336 45.3913 5.88043 50.2076 7.48614C50.3009 7.51718 50.3859 7.56848 50.4568 7.63638C50.7955 7.96061 58.6903 15.6187 60.3175 26.0158C65.9329 29.1527 70.2819 35.2164 72.9069 43.5781C74.8601 49.7994 75.1971 55.075 75.2237 55.5424C75.2804 56.0009 75.7045 60.48 71.4752 65.3534C68.3549 68.9488 63.5058 71.8273 57.0622 73.9093C48.8562 76.5608 38.0591 77.9052 24.9706 77.9052ZM21.6134 35.2503C22.7695 44.7693 17.0965 50.5684 16.8488 50.8161C16.8383 50.8265 16.8275 50.8366 16.8164 50.8464C11.1323 55.8199 11.0666 64.0845 11.0666 64.1674C11.0666 71.0102 17.3038 76.577 24.9704 76.577C32.637 76.577 38.8742 71.0102 38.8742 64.1674C38.8742 64.1519 38.8747 64.1363 38.8759 64.121C38.8795 64.0686 39.2288 58.7833 38.0395 52.4931C36.964 46.8063 34.3747 39.1144 28.1493 34.5967L21.6134 35.2503ZM40.2025 64.1903C40.1931 69.5436 36.7708 74.1882 31.7973 76.4467C55.8017 75.4973 66.0795 69.5444 70.472 64.4831C74.4487 59.9008 73.9103 55.7389 73.9045 55.6974C73.9017 55.6782 73.8999 55.6586 73.8989 55.639C73.8959 55.585 73.5886 50.1701 71.6304 43.9467C69.8585 38.3152 66.3349 30.8537 59.591 27.1316C57.8007 27.4198 29.3793 32.7866 27.0707 33.3696L28.2663 33.2501C28.4255 33.2345 28.5847 33.2762 28.7154 33.3683C34.0521 37.1354 37.7297 43.6742 39.3507 52.278C40.538 58.5806 40.2317 63.7465 40.2025 64.1903ZM13.5409 15.3317C18.9721 22.8192 20.874 31.0574 21.3729 33.7073C23.3054 32.9373 26.6444 32.0598 30.5708 31.1757C28.9863 21.9473 21.4843 14.5073 20.5152 13.5792C17.3661 12.6089 14.5772 14.4935 13.5409 15.3317ZM28.4826 13.4429C33.8587 20.8323 35.2825 27.8109 35.6216 30.096C38.8936 29.4276 42.3137 28.7796 45.5135 28.1976C43.9292 18.987 36.3883 12.4558 35.479 11.6978C32.3209 10.712 29.5216 12.6029 28.4826 13.4429ZM42.6778 10.4538C48.2212 18.0125 50.6069 25.1273 51.2218 27.1851C54.8448 26.5577 57.6944 26.0922 58.9505 25.8893C57.3773 16.7219 50.5763 9.63537 49.6435 8.70021C46.4988 7.73566 43.7141 9.61612 42.6778 10.4538ZM25.3441 71.1815C20.4467 71.1815 16.4623 67.1971 16.4623 62.2997C16.4623 57.4022 20.4467 53.4178 25.3441 53.4178C30.2416 53.4178 34.226 57.4022 34.226 62.2997C34.226 67.1971 30.2416 71.1815 25.3441 71.1815ZM25.3441 54.746C21.179 54.746 17.7904 58.1345 17.7904 62.2997C17.7904 66.4649 21.179 69.8534 25.3441 69.8534C29.5093 69.8534 32.8978 66.4649 32.8978 62.2997C32.8978 58.1345 29.5093 54.746 25.3441 54.746ZM57.4681 66.6993C57.2014 66.6993 56.9497 66.5372 56.8482 66.2734C56.7166 65.9313 56.8871 65.5474 57.2291 65.4155C57.322 65.3796 66.5158 61.7279 66.5158 53.3348C66.5158 44.7649 59.3375 38.2052 59.2649 38.1399C58.9922 37.8946 58.9702 37.4747 59.2155 37.2021C59.461 36.9293 59.881 36.9078 60.1533 37.1528C60.4674 37.4354 67.8438 44.1796 67.8438 53.3348C67.8438 57.2018 66.0834 60.7355 62.7528 63.5538C60.2675 65.6565 57.8096 66.6151 57.7062 66.6549C57.628 66.685 57.5475 66.6993 57.4681 66.6993ZM26.8383 50.2635C24.8243 50.2635 23.1859 48.29 23.1859 45.8641C23.1859 43.4383 24.8243 41.4647 26.8383 41.4647C28.8522 41.4647 30.4906 43.4383 30.4906 45.8641C30.4906 48.29 28.8522 50.2635 26.8383 50.2635ZM26.8383 42.7928C25.5566 42.7928 24.514 44.1706 24.514 45.8641C24.514 47.5577 25.5566 48.9354 26.8383 48.9354C28.1199 48.9354 29.1625 47.5577 29.1625 45.8641C29.1625 44.1706 28.1197 42.7928 26.8383 42.7928Z" fill="black"/>
</g>
</svg>
