<svg width="241" height="55" viewBox="0 0 241 55" fill="none" xmlns="http://www.w3.org/2000/svg">
<g id="&#208;&#187;&#208;&#190;&#208;&#179;&#208;&#190;&#209;&#130;&#208;&#184;&#208;&#191;" clip-path="url(#clip0_49_338)">
<g id="Group">
<path id="Vector" d="M131.175 36.2884C130.898 34.6705 130.404 32.0928 130.074 26.1528C129.775 20.7673 129.913 18.5819 129.692 13.7443C129.58 11.3061 129.471 10.3107 127.735 9.27312C127.524 9.14667 127.294 9.01049 127.07 8.91971C126.661 8.75759 126.272 8.69274 125.864 8.76407C125.547 8.81919 125.389 8.95862 125.389 8.95862C125.449 12.7586 125.122 15.5957 123.317 21.9929C121.946 26.8434 119.861 32.1349 119.235 33.0817C119.008 32.939 118.764 32.6991 118.602 32.3003C118.181 31.2401 117.564 27.1255 117.077 16.8083C116.83 11.5817 116.955 9.2407 117.12 5.02564C117.202 2.89218 117.064 1.61469 115.433 0.619289C114.948 0.324235 114.444 0 113.759 0C113.248 0 112.988 0.223722 112.988 0.223722C113.136 4.89271 112.988 10.3334 109.983 20.5662C108.988 23.9545 107.911 26.9277 106.649 29.5475C104.455 34.103 103.279 35.7858 102.066 37.3097C102.066 37.3097 101.621 37.1638 101.107 36.3759C100.91 36.0712 100.518 35.1828 100.327 34.21C100.215 33.6459 100.066 32.7672 100.136 31.3633C100.175 30.5624 100.356 29.9431 100.788 29.8783C100.788 29.8783 100.821 29.7129 100.788 29.5443C100.762 29.4081 100.676 29.246 100.524 29.1325C100.122 28.8277 99.8061 28.6559 99.3843 28.4127C98.3992 27.8421 97.6975 27.9426 97.1802 28.2992C96.485 28.7823 96.2478 29.9237 96.2181 31.9599C96.1918 33.7788 96.5839 35.5945 96.9759 36.7391C97.4141 38.0166 98.2872 39.2778 98.8374 39.7804C99.5194 40.4029 100.248 40.7855 101.075 40.8277C101.49 40.8471 101.648 40.7953 101.648 40.7953C103.562 38.8758 106.936 33.9669 109.288 28.3511C111.011 24.2398 112.306 19.4671 113.15 15.7513L113.252 15.7611C113.245 17.5314 113.304 19.9729 113.486 22.6543C113.789 27.145 114.115 29.7583 114.517 32.2971C114.754 33.7983 115.166 34.5213 115.528 35.0206C116.079 35.7761 116.685 36.2268 117.571 36.577C117.904 36.7067 118.457 36.8169 118.879 36.7942C119.232 36.778 119.538 36.6418 119.538 36.6418C119.538 36.6418 121.429 33.6848 124.216 25.6438C125.001 23.3806 125.505 20.9261 125.91 19.1461L126.012 19.1558C126.025 21.5227 126.061 24.7618 126.249 27.641C126.618 33.2211 126.954 34.7126 127.284 35.6464C127.686 36.7942 128.562 37.6567 129.936 38.4121C130.41 38.6748 130.872 38.7007 131.122 38.6618C131.491 38.6067 131.643 38.4251 131.643 38.4251C131.488 37.8901 131.31 37.099 131.168 36.2916L131.175 36.2884Z" fill="white"/>
<g id="Group_2">
<path id="Vector_2" d="M167.65 30.5138C166.866 29.8556 166.243 30.2446 166.243 30.2446C166.332 30.9418 166.352 31.5513 166.105 32.5013C165.604 34.4078 164.286 35.0012 164.286 35.0012C164.286 35.0012 163.387 35.0531 162.695 34.5602C161.212 33.5097 159.664 29.7615 161.173 23.3417C161.73 20.9683 162.461 19.4184 163.153 18.4036C163.427 18.5009 163.779 18.6695 164.122 18.9775C164.527 19.3406 164.659 20.3652 164.54 21.6654C164.412 23.1082 163.997 23.3384 163.997 23.3384C163.997 23.3384 163.964 23.5038 163.997 23.6724C164.023 23.8086 164.109 23.9707 164.26 24.0842C164.662 24.389 164.978 24.5608 165.4 24.804C166.029 25.1671 166.939 25.4849 167.37 25.232C167.802 24.9823 168.085 23.6854 168.023 21.6881C167.963 19.7946 166.919 18.4587 165.561 17.5606C164.204 16.6592 162.619 15.9329 161.595 15.9329C160.899 15.9329 160.049 16.3123 159.578 16.844C158.751 17.7778 157.806 19.8594 157.025 24.1685C156.946 24.5965 156.883 24.9953 156.824 25.3844C156.613 26.597 156.35 28.0204 155.638 29.5573C154.554 31.908 153.671 33.1044 153.147 33.6718C152.337 31.7783 152.307 26.1885 152.571 21.179C152.699 18.7408 152.396 17.5087 150.656 16.4711C150.445 16.3447 150.215 16.2085 149.991 16.1177C149.582 15.9556 149.193 15.8908 148.785 15.9621C148.469 16.0172 148.31 16.1566 148.31 16.1566C148.38 16.6884 148.432 17.2882 148.452 17.9529C148.508 20.0507 148.215 22.9202 147.223 25.66C145.803 29.5832 144.505 31.908 143.681 33.153C143.194 32.9293 141.738 31.9566 141.734 28.3576C141.731 25.7961 142.149 24.4733 142.818 21.8599C143.197 20.3847 143.655 19.4217 144.09 18.7667C144.314 18.4263 144.459 18.3355 144.459 18.3355C144.459 18.3355 144.752 18.3841 145.316 18.7278C146.113 19.2174 146.465 19.6713 146.617 19.934C146.874 19.801 147.154 19.5676 147.266 19.1526C147.437 18.5365 147.286 17.8978 146.465 17.2623C145.596 16.5846 144.074 15.9329 142.901 15.9329C141.283 15.9329 140.159 16.7824 139.059 20.7575C137.955 24.7327 137.744 27.0444 137.837 28.8926C137.932 30.7407 138.331 33.5648 139.995 35.3287C141.243 36.6515 142.317 36.8104 142.845 36.8104C143.266 36.8104 143.583 36.6872 143.583 36.6872C143.583 36.6872 145.533 34.236 147.404 30.3225C147.853 29.3887 148.225 28.3965 148.508 27.4368L148.61 27.4497C148.584 28.8083 148.6 30.4327 148.736 32.0831C148.976 35.0758 149.635 35.8572 150.132 36.256C150.686 36.7034 151.605 36.8137 151.984 36.8137C152.363 36.8137 152.808 36.7099 152.808 36.7099C152.808 36.7099 154.419 35.6594 156.392 32.2679C156.59 31.9274 156.781 31.4832 156.91 31.1363L157.012 31.1493C157.315 32.1933 157.723 32.9877 158.359 33.8437C159.98 36.0322 162.672 36.8137 163.809 36.8137C164.945 36.8137 165.219 36.6904 165.219 36.6904C165.219 36.6904 167.067 35.7048 167.957 33.4092C168.378 32.3198 168.51 31.2368 167.654 30.517L167.65 30.5138Z" fill="white"/>
<path id="Vector_3" d="M238.279 22.8942C237.264 22.0674 236.457 21.8761 235.317 22.249C234.282 22.5895 234.065 22.9396 234.048 23.199C234.042 23.2995 234.055 23.3903 234.075 23.4681C234.371 23.5492 234.697 23.7697 234.994 24.2658C235.857 25.7054 236.045 28.6754 235.402 31.5416C234.908 33.7561 234.091 34.7029 233.762 35.0142C233.093 34.8229 231.449 33.8566 231.182 29.0158C231.083 27.2293 231.086 25.3422 231.416 22.664C233.696 21.9313 236.704 20.5176 238.358 18.4684C241.491 14.5841 241.099 11.2283 240.822 9.86323C240.358 7.58062 239.218 6.51388 237.863 5.61251C236.506 4.71113 234.921 3.98485 233.897 3.98485C233.201 3.98485 232.351 4.3642 231.88 4.89595C231.053 5.82975 230.101 8.48523 229.142 12.6192C228.543 15.2034 227.973 18.9678 227.614 21.7464C227.409 21.7854 227.195 21.8145 226.975 21.8308C225.821 21.9053 224.546 21.2893 222.942 20.5241C222.418 20.2712 221.36 19.7719 220.843 19.5319C220.095 19.1882 219.631 19.0196 219.12 19.3082C218.527 19.6454 218.501 20.3101 218.507 20.5144C218.952 20.6927 219.69 21.1661 220.105 22.4111C220.645 24.0226 220.701 26.8694 219.848 30.5267C219.14 33.5648 218.336 34.6218 218.052 34.9136C217.723 34.9072 217.252 34.8358 216.84 34.544C215.509 33.6037 213.951 29.6967 215.469 23.3352C216.794 17.7778 218.616 17.4179 218.616 17.4179C218.616 16.7857 218.237 16.6949 217.459 16.3544C216.942 16.1275 216.372 15.9264 215.894 15.9264C215.199 15.9264 214.349 16.3058 213.878 16.8375C213.051 17.7713 212.106 19.8529 211.325 24.162C210.458 28.9283 210.735 31.2401 212.656 33.8339C214.277 36.0225 216.54 36.8039 217.819 36.8039C218.682 36.8039 218.903 36.6807 218.903 36.6807C218.903 36.6807 222.276 34.0577 223.98 27.9037C224.573 25.7637 224.523 24.1685 224.339 23.2768L224.418 23.212C224.784 23.413 225.307 23.5816 225.607 23.6367C226.26 23.7567 226.869 23.7275 227.406 23.627C227.195 25.9096 227.162 28.0301 227.436 29.7097C227.861 32.3262 228.836 33.5713 229.946 34.7061C231.09 35.8734 232.51 36.8039 233.692 36.8039C234.302 36.8039 234.697 36.6807 234.697 36.6807C234.697 36.6807 237.896 34.2781 239.185 29.3822C240.321 25.0699 238.994 23.4649 238.282 22.8878L238.279 22.8942ZM233.465 11.3969C234.094 9.04616 234.786 7.27259 235.458 6.46849C235.732 6.57224 236.081 6.75057 236.411 7.06832C236.872 7.51577 237.135 8.50793 237.162 9.87944C237.241 14.2242 235.294 17.6968 233.238 19.5384C232.79 19.9405 232.213 20.3879 231.633 20.7283L231.551 20.67C231.884 18.663 232.559 14.7981 233.465 11.4001V11.3969Z" fill="white"/>
<path id="Vector_4" d="M204.297 15.9329C203.434 15.9329 202.808 16.2085 202.231 16.7532C201.829 17.1358 200.703 18.3517 199.352 21.1207C199.012 21.8145 198.68 22.5668 198.377 23.2866L198.274 23.2671C198.4 22.3366 198.469 21.7367 198.541 20.991C198.752 18.8672 198.515 17.5444 196.884 16.549C196.4 16.2539 195.896 15.9297 195.21 15.9297C194.7 15.9297 194.439 16.1534 194.439 16.1534C194.439 16.1534 194.723 23.7762 192.749 28.3608C191.201 31.9599 188.848 33.6945 187.353 34.6964C187.224 34.7807 187.092 34.8553 186.957 34.9234C186.799 34.9331 186.628 34.9396 186.46 34.9266C185.992 34.8974 185.471 34.7548 185.185 34.557C184.368 33.9928 183.452 32.3651 183.119 30.3808L183.201 30.3387C184.249 30.9547 186.924 30.4262 188.717 28.4873C191.013 26.0037 191.293 23.1698 191.016 21.8048C190.552 19.5222 189.412 18.4555 188.058 17.5541C186.7 16.6527 185.115 15.9264 184.091 15.9264C183.396 15.9264 182.546 16.3058 182.074 16.8375C181.247 17.7713 180.302 19.8529 179.521 24.162C178.655 28.9283 178.931 31.2401 180.852 33.8339C182.473 36.0225 185.165 36.8039 186.302 36.8039C187.438 36.8039 187.712 36.6807 187.712 36.6807C187.712 36.6807 188.674 36.2106 190.222 34.9104C192.301 33.1628 193.412 31.4216 194.169 29.7291C194.225 29.6059 194.344 29.34 194.397 29.1714L194.495 29.2006C194.258 33.7334 193.981 38.3213 194.067 43.1622C194.12 46.0738 194.548 46.8487 195.247 47.3254C196.172 47.9576 196.871 48.1197 197.833 48.1197C198.34 48.1197 198.522 47.8668 198.522 47.8668C198.522 47.8668 198.044 45.7982 198.008 43.1071C197.961 39.3913 197.658 30.9191 199.592 25.4071C200.851 21.8275 202.426 19.4995 203.368 18.2998C203.645 17.9497 203.885 17.7162 204.067 17.5638C204.241 17.6189 204.64 17.7973 204.926 18.329C205.427 19.266 205.79 23.1569 204.795 27.4076C203.902 31.2206 203.068 33.4384 201.991 34.2814C201.859 34.223 201.688 34.1355 201.483 34.009C200.686 33.5194 200.334 33.0655 200.182 32.8029C199.925 32.9358 199.645 33.1693 199.533 33.5843C199.362 34.2003 199.513 34.8391 200.334 35.4746C201.203 36.1522 202.726 36.8039 203.898 36.8039C204.515 36.8039 205.104 36.6483 205.832 35.7599C206.584 34.8391 207.921 31.6486 208.854 27.0185C209.829 22.1777 209.546 18.9904 208.142 17.7519C206.943 16.6916 205.384 15.9264 204.304 15.9264L204.297 15.9329ZM183.666 23.3417C184.223 20.9715 184.951 19.4217 185.646 18.4068C185.923 18.5073 186.275 18.6889 186.611 19.0131C187.073 19.4606 187.455 20.456 187.362 21.8243C187.217 23.9707 186.394 26.4025 184.994 27.9231C184.196 28.7888 183.524 29.0255 183.073 29.0612C182.99 27.4757 183.142 25.5724 183.666 23.3417Z" fill="white"/>
<path id="Vector_5" d="M176.009 20.9586C176.081 19.091 175.989 17.9172 174.859 16.9348C173.732 15.9524 172.019 14.6878 168.863 12.9986C168.204 12.6452 167.443 12.3112 166.731 12.0615L166.738 11.961C168.593 11.8281 171.772 11.6887 176.035 11.7535C184.249 11.88 186.236 12.1394 187.738 12.4733C188.568 12.6581 189.023 13.0991 189.132 13.5401C189.132 13.5401 189.3 13.579 189.471 13.553C189.609 13.5303 189.777 13.4558 189.899 13.3098C190.226 12.9273 190.242 12.8689 190.509 12.4636C191.128 11.5168 191.092 10.7614 190.753 10.2426C190.291 9.539 189.316 8.96834 186.565 8.66032C179.781 7.90485 171.225 8.15451 166.164 8.44957C162.784 8.64735 161.68 9.02022 160.857 10.4306C160.274 11.426 160.359 11.9578 160.445 12.1977C160.494 12.3339 160.577 12.402 160.643 12.4377C161.598 12.2107 162.639 12.2496 164.082 12.8494C168.431 14.6587 170.905 16.3188 171.999 17.1747C172.243 19.9632 171.963 24.0745 171.818 32.0636C171.772 34.6024 172.256 35.5459 172.965 36.016C173.897 36.6386 174.589 36.8104 175.551 36.8104C176.058 36.8104 176.24 36.5575 176.24 36.5575C176.24 36.5575 175.828 35.8118 175.821 33.1206C175.808 29.3238 175.844 25.1736 176.009 20.9618V20.9586Z" fill="white"/>
</g>
<g id="Group_3">
<path id="Vector_6" d="M16.8293 29.4081C16.4603 29.4081 16.2296 29.5897 16.0979 29.7388C16.2889 30.0209 16.7107 30.9644 16.0517 33.3054C15.0139 36.9855 12.8691 38.7915 12.0915 39.3459C11.8576 39.2324 11.538 39.0152 11.2283 38.5969C10.8626 38.1009 10.4079 36.8655 10.4079 35.1211C10.4079 33.2568 10.5694 31.1493 13.617 24.3825C16.6645 17.6124 18.1735 14.3182 18.6315 11.7762C19.0894 9.23421 18.8918 6.8219 17.0006 5.41797C15.9298 4.62359 14.3648 3.98809 13.2644 3.98809C11.1097 3.98809 6.46089 9.05264 3.36717 13.3325C0.276755 17.6092 -0.181206 21.2569 0.0527165 22.6348C0.247103 23.7762 0.962051 25.2158 1.72642 26.0069C2.44796 26.7526 3.10689 26.8402 3.71641 26.6165C4.12495 26.4673 4.33581 26.1723 4.44454 25.9064C4.23368 25.8124 3.89433 25.6113 3.49237 25.1931C3.40342 24.7067 3.19256 23.6205 3.72959 21.3703C4.40171 18.5462 5.94362 16.1858 8.05881 13.5401C9.21854 12.0875 10.8296 10.3042 11.9037 9.2634C13.2578 7.95024 14.523 6.93863 15.1226 6.49443C15.3533 6.58197 15.6168 6.74733 15.775 7.0586C16.1044 7.70707 15.6399 9.73029 13.8674 14.0653C12.0816 18.4392 9.95656 22.904 8.08517 27.5535C6.25991 32.0928 6.19072 34.9298 7.31751 37.0276C8.64856 39.5016 10.7572 41.2427 12.2398 41.2427C12.645 41.2427 12.7966 41.1584 12.7966 41.1584C12.7966 41.1584 14.2759 40.2765 16.4603 37.8804C18.4041 35.7469 19.465 32.8158 19.0532 31.3568C18.6414 29.8977 17.3696 29.4114 16.8293 29.4114V29.4081Z" fill="white"/>
<path id="Vector_7" d="M82.3771 16.5522C81.8928 16.2571 81.3887 15.9329 80.7034 15.9329C80.1928 15.9329 79.9325 16.1566 79.9325 16.1566C80.0017 16.6884 80.0577 17.2882 80.0741 17.9529C80.1302 20.0507 79.8369 22.9202 78.8452 25.66C77.4252 29.5832 76.1271 31.908 75.3034 33.153C74.8158 32.9293 73.3596 31.9566 73.353 28.3576C73.3497 25.7961 73.7681 24.4733 74.4369 21.8599C74.8158 20.3847 75.2738 19.4217 75.7087 18.7667C75.9327 18.4263 76.0777 18.3355 76.0777 18.3355C76.0777 18.3355 76.3709 18.3841 76.9343 18.7278C77.7316 19.2174 78.0842 19.6713 78.2357 19.934C78.4927 19.801 78.7727 19.5676 78.8881 19.1526C79.0594 18.5365 78.9078 17.8978 78.0874 17.2623C77.2176 16.5846 75.6955 15.9329 74.5226 15.9329C72.9049 15.9329 71.7814 16.7824 70.681 20.7575C69.5773 24.7326 69.3664 27.0444 69.4587 28.8926C69.5542 30.7407 69.9529 33.5648 71.6167 35.3287C72.8654 36.6515 73.9394 36.8104 74.4666 36.8104C74.8883 36.8104 75.2046 36.6872 75.2046 36.6872C75.2046 36.6872 77.155 34.236 79.0264 30.3225C79.3823 29.58 79.6953 28.818 79.9621 28.0982L80.0643 28.1177C79.6689 33.0882 79.4646 37.9031 79.5602 43.1719C79.6129 46.0835 80.0412 46.8585 80.7397 47.3351C81.6655 47.9673 82.364 48.1295 83.326 48.1295C83.8334 48.1295 84.0146 47.8766 84.0146 47.8766C84.0146 47.8766 83.639 45.8079 83.5006 43.1168C83.3622 40.4548 83.55 36.2527 83.695 31.5546C83.8499 26.5289 84.0311 25.3973 84.0706 20.9618C84.0904 18.8283 84.0146 17.5508 82.3837 16.5554L82.3771 16.5522Z" fill="white"/>
<path id="Vector_8" d="M66.6417 20.858C65.7027 18.9969 64.543 18.1896 63.2383 17.5411C61.5811 16.7176 59.848 15.9329 58.8201 15.9329C58.1249 15.9329 57.2749 16.3123 56.8037 16.844C56.2437 17.4763 55.6012 18.7148 55.051 20.6538C54.5304 22.4857 54.0197 23.9675 52.4119 26.7429C51.7167 27.9393 50.5735 29.6448 49.6444 30.8899C49.539 31.0325 49.2194 31.4346 49.2194 31.4346L49.1271 31.3924C49.6444 30.0047 50.02 28.5457 50.3264 27.025C51.3016 22.1842 51.0183 18.9969 49.6147 17.7584C48.4155 16.6981 46.8571 15.9329 45.7764 15.9329C44.9132 15.9329 44.2872 16.2085 43.7106 16.7532C43.3087 17.1358 42.5872 17.8427 41.1968 20.8775C40.8673 21.5941 40.5181 22.476 40.2216 23.2866L40.1194 23.2671C40.2677 22.3236 40.3567 21.7367 40.4291 20.991C40.64 18.8672 40.4028 17.5444 38.7719 16.549C38.2876 16.2539 37.7835 15.9297 37.0982 15.9297C36.5875 15.9297 36.3272 16.1534 36.3272 16.1534C36.3272 16.1534 36.4426 17.4828 35.2598 18.4198C34.021 19.4022 32.0837 19.3406 30.5418 19.2271C29.7049 19.1655 28.8055 19.0164 28.2948 19.305C27.7017 19.6422 27.6754 20.3068 27.682 20.5111C28.1268 20.6894 28.8648 21.1628 29.2799 22.4079C29.8202 24.0193 29.8762 26.8661 29.0229 30.5235C28.3146 33.5616 27.5107 34.6186 27.2273 34.9104C26.8946 34.9039 26.4267 34.8326 26.0149 34.5408C24.6838 33.6005 23.1254 29.6934 24.6443 23.332C25.9687 17.7746 27.7907 17.4147 27.7907 17.4147C27.7907 16.7824 27.4118 16.6916 26.6343 16.3512C26.117 16.1242 25.547 15.9232 25.0693 15.9232C24.3741 15.9232 23.5241 16.3025 23.0529 16.8343C22.226 17.7681 21.2804 19.8497 20.4996 24.1588C19.6331 28.925 19.9098 31.2368 21.8306 33.8307C23.4516 36.0193 25.7151 36.8007 26.9934 36.8007C27.8566 36.8007 28.0773 36.6775 28.0773 36.6775C28.0773 36.6775 31.4511 34.0544 33.1545 27.9004C33.6553 26.0847 33.6816 24.5381 33.5663 23.6011C33.4246 22.4436 32.7229 21.513 32.2122 21.1466L32.2583 21.0558C32.7525 21.1369 33.6586 21.1174 34.6074 20.8353C35.5003 20.5662 36.0834 20.1674 36.4393 19.7783L36.5381 19.8043C36.5085 21.8988 36.459 24.4181 36.3602 27.6929C36.2053 32.9196 35.8462 37.715 35.9451 43.1589C35.9978 46.0706 36.4261 46.8455 37.1246 47.3221C38.0504 47.9544 38.7488 48.1165 39.7109 48.1165C40.2183 48.1165 40.3995 47.8636 40.3995 47.8636C40.3995 47.8636 39.9218 45.795 39.8855 43.1038C39.8394 39.3881 39.5363 30.9158 41.4703 25.4038C42.7288 21.8243 43.8984 19.4963 44.8374 18.2966C45.1142 17.9464 45.3547 17.713 45.5359 17.5606C45.7105 17.6157 46.1092 17.794 46.3958 18.3258C46.8966 19.2628 47.259 23.1536 46.264 27.4043C45.2888 31.5643 44.3926 33.8404 43.1637 34.4792C42.831 34.651 42.4488 34.6478 42.4488 34.6478C42.4488 34.6478 42.3236 34.8455 42.3137 35.1082C42.3038 35.3708 42.4224 35.6821 42.7354 35.9252C43.4372 36.47 44.195 36.8039 45.3679 36.8039C45.7632 36.8039 46.152 36.7293 46.5639 36.457C46.9757 36.1846 47.5687 35.7307 48.2969 35.0077C49.3643 33.9474 50.5307 32.7704 51.7233 31.1784C52.6656 29.9204 53.3509 28.8958 53.7627 28.0528L53.8583 28.0885C53.6969 30.4846 54.2932 32.1058 55.5748 33.8372C57.1958 36.0258 59.4593 36.8072 60.7376 36.8072C61.6008 36.8072 61.8216 36.684 61.8216 36.684C61.8216 36.684 65.1953 34.0609 66.8987 27.9069C67.9464 24.1166 67.0997 21.7724 66.6384 20.8548L66.6417 20.858ZM62.777 30.53C62.0687 33.5681 61.2648 34.6251 60.9814 34.9169C60.6487 34.9104 60.1808 34.8391 59.769 34.5472C58.4379 33.607 56.8795 29.6999 58.3984 23.3384C59.0277 20.7057 59.7657 19.2401 60.3686 18.4263C60.6717 18.4814 61.1824 18.6435 61.8051 19.1428C62.5069 19.7038 62.889 21.1109 63.1592 22.2263C63.5579 23.8864 63.6303 26.8661 62.777 30.5267V30.53Z" fill="white"/>
</g>
</g>
<g id="Group_4">
<path id="Vector_9" d="M117.139 4.03997C117.143 4.34799 117.139 4.67223 117.123 5.02564C116.958 9.2407 116.836 11.5784 117.083 16.8083C117.571 27.1255 118.187 31.2401 118.609 32.3003C118.639 32.3781 118.675 32.443 118.711 32.5078C119.551 30.7764 121.287 26.2209 122.48 21.9929C124.147 16.0853 124.556 13.2126 124.559 9.8146C124.559 9.8146 124.678 9.63627 125.01 9.28934C125.155 9.14019 125.277 9.03319 125.393 8.95862C125.393 8.95862 125.551 8.81595 125.867 8.76083C126.272 8.6895 126.664 8.75435 127.073 8.91647C127.297 9.00725 127.528 9.14343 127.738 9.26988C129.478 10.3107 129.587 11.3028 129.695 13.7411C129.916 18.5787 129.778 20.764 130.078 26.1496C130.236 28.9801 130.43 31.0488 130.618 32.6116C135.362 24.4765 138.957 15.9978 141.458 7.36338C133.639 5.43094 125.505 4.29287 117.143 4.03349L117.139 4.03997Z" fill="#E4003C"/>
<path id="Vector_10" d="M126.45 35.6432C126.124 34.7094 125.785 33.2211 125.416 27.6378C125.297 25.8642 125.225 24.0388 125.178 22.3398C124.912 23.4227 124.599 24.5543 124.223 25.6405C121.436 33.6783 119.545 36.6386 119.545 36.6386C119.545 36.6386 119.36 36.7164 119.12 36.7618C118.935 36.8072 118.625 36.8428 118.092 36.8234C117.67 36.8104 117.07 36.7034 116.741 36.5737C115.854 36.2235 115.248 35.7729 114.698 35.0174C114.336 34.5181 113.924 33.795 113.687 32.2938C113.285 29.7583 112.962 27.1417 112.655 22.6511C112.557 21.1855 112.487 19.8724 112.444 18.7019C111.644 21.8048 110.593 25.2612 109.298 28.3479C106.946 33.9604 103.572 38.8693 101.658 40.7888C105.259 45.9052 109.229 50.6455 113.515 54.9968C118.731 49.6988 123.482 43.8301 127.666 37.407C127.096 36.8915 126.687 36.3176 126.454 35.6399L126.45 35.6432Z" fill="#E4003C"/>
<path id="Vector_11" d="M96.3466 28.3154C96.8309 27.9004 97.8951 27.7869 98.8638 28.1663C98.9494 28.1987 99.0384 28.2344 99.1273 28.2798C99.1306 28.2798 99.1372 28.283 99.1405 28.2863C99.1537 28.2928 99.1603 28.296 99.1702 28.3025C99.2427 28.3381 99.3119 28.3706 99.3876 28.4127C99.8093 28.6559 100.126 28.8277 100.528 29.1325C100.676 29.246 100.762 29.4081 100.788 29.5443C100.824 29.7129 100.788 29.8783 100.788 29.8783C100.356 29.9431 100.172 30.5624 100.136 31.3633C100.066 32.7704 100.215 33.6491 100.327 34.21C100.518 35.1827 100.91 36.0712 101.107 36.3759C101.259 36.6094 101.404 36.7812 101.532 36.9142C102.643 35.4778 103.796 33.7172 105.806 29.5475C107.068 26.9277 108.142 23.9545 109.14 20.5662C111.384 12.9273 112.036 7.96321 112.158 3.99458C102.995 4.09833 94.0898 5.26233 85.5631 7.36986C87.8859 15.3914 91.1542 23.2768 95.4109 30.8834C95.4834 29.5735 95.6877 28.8699 96.3367 28.3154H96.3466Z" fill="#E4003C"/>
</g>
</g>
<defs>
<clipPath id="clip0_49_338">
<rect width="241" height="55" fill="white"/>
</clipPath>
</defs>
</svg>
