<svg width="0" height="0" class="hidden">
  <symbol fill="none" xmlns="http://www.w3.org/2000/svg" viewBox="0 0 44 45" id="ic_arr_ver">
    <path d="M11 17.0369L22 28.04L33 17.0369" stroke="currentColor" stroke-linecap="round" stroke-linejoin="round"></path>
  </symbol>
  <symbol fill="none" xmlns="http://www.w3.org/2000/svg" viewBox="0 0 28 28" id="ic_arrow_hor">
    <path d="M3 14.5H24" stroke="currentColor"></path>
    <path d="M13.5 25L24.5 14L13.5 3" stroke="currentColor" stroke-linecap="round" stroke-linejoin="round"></path>
  </symbol>
  <symbol fill="none" xmlns="http://www.w3.org/2000/svg" viewBox="0 0 45 44" id="ic_arrow_hor2">
    <path d="M20.5078 11L9.50471 22L20.5078 33" stroke="currentColor" stroke-linecap="round" stroke-linejoin="round"></path>
    <line x1="34.5469" y1="22.5" x2="9.54688" y2="22.5" stroke="currentColor"></line>
  </symbol>
  <symbol fill="none" xmlns="http://www.w3.org/2000/svg" viewBox="0 0 44 45" id="ic_arrow_ver">
    <path d="M11 23.5046L22 34.5077L33 23.5046" stroke="currentColor" stroke-linecap="round" stroke-linejoin="round"></path>
    <line x1="22.5" y1="9.46777" x2="22.5" y2="34.4678" stroke="currentColor"></line>
  </symbol>
  <symbol fill="none" xmlns="http://www.w3.org/2000/svg" viewBox="0 0 18 13" id="ic_check">
    <path d="M17 1L6 12L1 7" stroke="currentColor" stroke-linecap="round" stroke-linejoin="round"></path>
  </symbol>
  <symbol fill="none" xmlns="http://www.w3.org/2000/svg" viewBox="0 0 20 21" id="ic_close">
    <path d="M19.726 1.68774C20.1058 1.28681 20.0887 0.653878 19.6877 0.274047C19.2868 -0.105784 18.6539 -0.0886773 18.274 0.312255L19.726 1.68774ZM1.72595 20.6877L19.726 1.68774L18.274 0.312255L0.274047 19.3123L1.72595 20.6877Z" fill="currentColor"></path>
    <path d="M19 20L1 1" stroke="currentColor" stroke-width="2" stroke-linecap="round"></path>
  </symbol>
  <symbol fill="none" xmlns="http://www.w3.org/2000/svg" viewBox="0 0 44 22" id="ic_menu">
    <path d="M43 22C43.5523 22 44 21.5523 44 21C44 20.4477 43.5523 20 43 20V22ZM13 22H43V20H13V22Z" fill="currentColor"></path>
    <path d="M43 12C43.5523 12 44 11.5523 44 11C44 10.4477 43.5523 10 43 10V12ZM0 12H43V10H0V12Z" fill="var(--color2)"></path>
    <path d="M43 2C43.5523 2 44 1.55228 44 1C44 0.447715 43.5523 0 43 0V2ZM13 2H43V0H13V2Z" fill="currentColor"></path>
  </symbol>
  <symbol fill="none" xmlns="http://www.w3.org/2000/svg" viewBox="0 0 23 14" id="ic_vk">
    <path d="M22.3216 0.971292C22.221 1.4067 21.8858 2.07656 21.3161 3.18182C20.8804 3.95215 20.3106 4.72249 19.7743 5.72727C19.2381 6.49761 19.0035 6.83254 19.0035 6.93301C18.7689 7.16746 18.7689 7.36842 18.7689 7.4689C18.7689 7.56938 18.8694 7.80383 19.0035 8.00479L19.4392 8.44019C21.5507 10.5837 22.6567 12.1244 22.9584 12.8947C23.0589 13.2297 22.9584 13.5646 22.8578 13.6651C22.7573 13.7656 22.4221 14 22.0869 14H19.5397C19.2046 14 19.0035 13.8995 18.6683 13.6651C18.4337 13.5646 18.2326 13.2297 17.7969 12.7943C17.3612 12.2584 16.9255 11.9234 16.5903 11.4545C15.4843 10.3493 14.6129 9.8134 14.0431 9.8134C13.8085 9.8134 13.6074 9.8134 13.6074 9.91388C13.6074 10.0144 13.4734 10.1148 13.4734 10.4498C13.4734 10.6842 13.4734 11.1196 13.4734 11.7895V12.8947C13.4734 13.2297 13.3728 13.4306 13.2388 13.6651C13.0041 13.8995 12.4679 13.8995 11.697 13.8995C10.3564 13.8995 8.94873 13.4641 7.6081 12.6938C6.26746 11.9234 5.06089 10.7177 3.95487 9.27751C2.94939 7.9378 2.17853 6.63158 1.54173 5.29187C1.00548 4.28708 0.670317 3.31579 0.335158 2.41148C0.100548 1.64115 0 1.20574 0 0.870814C0 0.435407 0.335159 0.100478 0.871412 0.100478H3.41862C3.75377 0.100478 3.95487 0.200957 4.08893 0.334928C4.18948 0.435407 4.42409 0.770335 4.52464 1.10526C4.96034 2.21053 5.39605 3.41627 5.96582 4.42105C6.50207 5.42584 6.9713 6.29665 7.50755 6.83254C8.0438 7.50239 8.37896 7.83732 8.71412 7.83732C8.94873 7.83732 9.04928 7.73684 9.04928 7.60287C9.14983 7.50239 9.14983 7.26794 9.14983 6.83254V3.08134C9.14983 2.64593 9.04928 2.21053 8.81467 1.8756C8.71412 1.64115 8.58006 1.44019 8.37896 1.20574C8.14435 0.971293 8.0438 0.770335 8.0438 0.669856C8.0438 0.569378 8.14435 0.334929 8.27841 0.23445C8.37896 0.133972 8.61357 0 8.71412 0H12.3673C12.602 0 12.8031 0.100479 12.9036 0.23445C13.0041 0.334929 13.0041 0.669856 13.0041 1.00478V6.09569C13.0041 6.33014 13.0041 6.5311 13.1047 6.63158C13.2052 6.73206 13.3393 6.86603 13.4399 6.86603C13.5404 6.86603 13.775 6.86603 13.8756 6.76555C14.1102 6.66507 14.3113 6.43062 14.5459 6.09569C15.0821 5.55981 15.6519 4.75598 16.1882 3.88517C16.5233 3.21531 16.959 2.54545 17.2942 1.77512L17.7299 0.904307C17.9645 0.4689 18.2661 0.133972 18.8359 0.133972H21.3831C22.1875 0.100479 22.4221 0.435407 22.3216 0.971292Z" fill="currentColor"></path>
  </symbol>
</svg>